{
.appVersion = "3087";
.formatVersion = 3;
DisplayStrings = (
"/.notdef"
);
customParameters = (
{
name = panose;
value = (
0,
0,
5,
0,
0,
0,
0,
0,
0,
0
);
},
{
name = codePageRanges;
value = (
"1252"
);
},
{
name = blueScale;
value = 0.037;
},
{
name = glyphOrder;
value = (
.notdef,
space,
uniE06D,
uniE06E,
uniE06F,
uniE070,
uniE50B,
uniE071,
uniE50A,
uniE50C,
uniE50D,
uniE039,
uniE03D,
uniE03E,
uniE03F,
uniE03C,
uniE041,
uniE03B,
uniE39F,
uniE042,
uniE020,
uniE021,
uniE2E1,
uniE3E7,
uniE3E8,
uniE229,
uniF50A,
uniF509,
uniF50B,
uniF50C,
uniE338,
uniE038,
uniE033,
uniE034,
uniE0D0,
uniE0D1,
uniE0D2,
uniE0D3,
uniE151,
uniE152,
uniE153,
uniE0D4,
uniE0D5,
uniE0D6,
uniE0D7,
uniE0D8,
uniE0D9,
uniE604,
uniE702,
uniE703,
uniE704,
uniF5DC,
uniF5DF,
uniF5DD,
uniE429,
uniE426,
uniE422,
uniE423,
uniE427,
uniE424,
uniE42D,
uniE42A,
uniE42E,
uniE42B,
uniE42C,
uniE42F,
uniE430,
uniE221,
uniF574,
uniF575,
uniE08B,
uniE08C,
uniE08D,
uniE08E,
uniE091,
uniE090,
uniE08F,
uniE093,
uniE092,
uniE094,
uniE431,
uniE432,
uniE433,
uniE434,
uniE435,
uniE436,
uniE437,
uniE438,
uniE439,
uniE43A,
uniE43B,
uniE43C,
uniE43D,
uniE43E,
uniE43F,
uniE000,
uniE001,
uniE002,
uniE003,
uniE004,
uniE005,
uniF5BF,
uniF5C4,
uniF5C6,
uniF5C0,
uniF5C1,
uniE10F,
uniE111,
uniE112,
uniE10D,
uniE10E,
uniE028,
uniE029,
uniE02A,
uniE02B,
uniE02C,
uniE032,
uniE030,
uniE031,
uniE026,
uniE025,
uniE023,
uniE50E,
uniF54E,
uniF54F,
uniF550,
uniF551,
uniF553,
uniF554,
uniF547,
uniF548,
uniF54A,
uniF54C,
uniF54D,
uniF520,
uniF521,
uniF524,
uniF525,
uniF526,
uniF527,
uniF541,
uniF540,
uniE100,
uniE103,
uniE105,
uniF57A,
uniF57C,
uniF57D,
uniF57E,
uniE010,
uniE011,
uniE012,
uniE206,
uniE204,
uniE205,
uniE250,
uniE251,
uniE20A,
uniE203,
uniE202,
uniE00C,
uniE228,
uniE332,
uniE626,
uniE627,
uniE01B,
uniE01C,
uniE01D,
uniF5BA,
uniF5BB,
uniF5BC,
uniE166,
uniE165,
uniE157,
uniE158,
uniE167,
uniF5B8,
uniF5B9,
uniE39A,
uniE009,
uniE00A,
uniE602,
uniE600,
uniE601,
uniE701,
uniE700,
uniE60F,
uniE60A,
uniE609,
uniF578,
uniF577,

glyphs = (
{
glyphname = .notdef;
layers = (
{
layerId = m01;
shapes = (
{
closed = 1;
nodes = (
(800,0,l),
(800,800,l),
(0,800,l),
(0,0,l)
);
}
);
width = 800;
}
);
note = .notdef;
},
{
glyphname = uniE06D;
layers = (
{
layerId = m01;
shapes = (
{
closed = 1;
nodes = (
(800,0,l),
(800,400,l),
(0,400,l),
(0,0,l)
);
}
);
width = 800;
}
);
note = uniE06D;
unicode = 57453;
},
{
glyphname = uniE06E;
layers = (
{
layerId = m01;
shapes = (
{
closed = 1;
nodes = (
(600,0,l),
(600,400,l),
(0,400,l),
(0,0,l)
);
}
);
width = 800;
}
);
note = uniE06E;
unicode = 57454;
},
{
glyphname = uniE06F;
layers = (
{
layerId = m01;
shapes = (
{
closed = 1;
nodes = (
(400,0,l),
(400,400,l),
(0,400,l),
(0,0,l)
);
}
);
width = 800;
}
);
note = uniE06F;
unicode = 57455;
},
{
glyphname = uniE070;
layers = (
{
layerId = m01;
shapes = (
{
closed = 1;
nodes = (
(200,0,l),
(200,200,l),
(0,200,l),
(0,0,l)
);
}
);
width = 800;
}
);
note = uniE070;
unicode = 57456;
},
{
glyphname = uniE50B;
layers = (
{
layerId = m01;
shapes = (
{
closed = 1;
nodes = (
(400,0,l),
(400,200,l),
(0,200,l),
(0,0,l)
);
}
);
width = 800;
}
);
note = uniE50B;
unicode = 58635;
},
{
glyphname = uniE071;
layers = (
{
layerId = m01;
shapes = (
{
closed = 1;
nodes = (
(600,0,l),
(600,200,l),
(0,200,l),
(0,0,l)
);
}
);
width = 800;
}
);
note = uniE071;
unicode = 57457;
},
{
glyphname = uniE50A;
layers = (
{
layerId = m01;
shapes = (
{
closed = 1;
nodes = (
(800,0,l),
(800,200,l),
(0,200,l),
(0,0,l)
);
}
);
width = 800;
}
);
note = uniE50A;
unicode = 58634;
},
{
glyphname = uniE50C;
layers = (
{
layerId = m01;
shapes = (
{
closed = 1;
nodes = (
(800,200,l),
(800,400,l),
(0,400,l),
(0,200,l)
);
}
);
width = 800;
}
);
note = uniE50C;
unicode = 58636;
},
{
glyphname = uniE50D;
layers = (
{
layerId = m01;
shapes = (
{
closed = 1;
nodes = (
(800,200,l),
(800,600,l),
(0,600,l),
(0,200,l)
);
}
);
width = 800;
}
);
note = uniE50D;
unicode = 58637;
},
{
glyphname = uniE039;
layers = (
{
layerId = m01;
shapes = (
{
closed = 1;
nodes = (
(800,0,l),
(800,800,l),
(0,0,l)
);
}
);
width = 800;
}
);
note = uniE039;
unicode = 57401;
},
{
glyphname = uniE03D;
layers = (
{
layerId = m01;
shapes = (
{
closed = 1;
nodes = (
(800,0,l),
(800,600,l),
(200,0,l)
);
}
);
width = 800;
}
);
note = uniE03D;
unicode = 57405;
},
{
glyphname = uniE03E;
layers = (
{
layerId = m01;
shapes = (
{
closed = 1;
nodes = (
(800,0,l),
(800,400,l),
(400,0,l)
);
}
);
width = 800;
}
);
note = uniE03E;
unicode = 57406;
},
{
glyphname = uniE03F;
layers = (
{
layerId = m01;
shapes = (
{
closed = 1;
nodes = (
(800,0,l),
(800,200,l),
(600,0,l)
);
}
);
width = 800;
}
);
note = uniE03F;
unicode = 57407;
},
{
glyphname = uniE03C;
layers = (
{
layerId = m01;
shapes = (
{
closed = 1;
nodes = (
(800,0,l),
(800,200,l),
(0,0,l)
);
}
);
width = 800;
}
);
note = uniE03C;
unicode = 57404;
},
{
glyphname = uniE041;
layers = (
{
layerId = m01;
shapes = (
{
closed = 1;
nodes = (
(800,0,l),
(800,400,l),
(0,200,l),
(0,0,l)
);
}
);
width = 800;
}
);
note = uniE041;
unicode = 57409;
},
{
glyphname = uniE03B;
layers = (
{
layerId = m01;
shapes = (
{
closed = 1;
nodes = (
(800,0,l),
(800,400,l),
(0,0,l)
);
}
);
width = 800;
}
);
note = uniE03B;
unicode = 57403;
},
{
glyphname = uniE39F;
layers = (
{
layerId = m01;
shapes = (
{
closed = 1;
nodes = (
(800,0,l),
(800,200,l),
(400,0,l)
);
}
);
width = 800;
}
);
note = uniE39F;
unicode = 58271;
},
{
glyphname = uniE042;
layers = (
{
layerId = m01;
shapes = (
{
closed = 1;
nodes = (
(800,0,l),
(800,600,l),
(0,200,l),
(0,0,l)
);
}
);
width = 800;
}
);
note = uniE042;
unicode = 57410;
},
{
glyphname = uniE020;
layers = (
{
layerId = m01;
shapes = (
{
closed = 1;
nodes = (
(400,0,l),
(600,800,l),
(400,800,l),
(200,0,l)
);
}
);
width = 800;
}
);
note = uniE020;
unicode = 57376;
},
{
glyphname = uniE021;
layers = (
{
layerId = m01;
shapes = (
{
closed = 1;
nodes = (
(200,0,l),
(400,800,l),
(200,800,l),
(0,0,l)
);
}
);
width = 800;
}
);
note = uniE021;
unicode = 57377;
},
{
glyphname = uniE2E1;
layers = (
{
layerId = m01;
shapes = (
{
closed = 1;
nodes = (
(400,0,l),
(600,800,l),
(200,800,l),
(0,0,l)
);
}
);
width = 800;
}
);
note = uniE2E1;
unicode = 58081;
},
{
glyphname = uniE3E7;
layers = (
{
layerId = m01;
shapes = (
{
closed = 1;
nodes = (
(800,600,l),
(800,800,l),
(0,400,l),
(0,200,l)
);
}
);
width = 800;
}
);
note = uniE3E7;
unicode = 58343;
},
{
glyphname = uniE3E8;
layers = (
{
layerId = m01;
shapes = (
{
closed = 1;
nodes = (
(400,0,l),
(800,200,l),
(800,400,l),
(0,0,l)
);
}
);
width = 800;
}
);
note = uniE3E8;
unicode = 58344;
},
{
glyphname = uniE229;
layers = (
{
layerId = m01;
shapes = (
{
closed = 1;
nodes = (
(200,0,l),
(800,600,l),
(800,800,l),
(0,0,l)
);
}
);
width = 800;
}
);
note = uniE229;
unicode = 57897;
},
{
glyphname = uniF50A;
layers = (
{
layerId = m01;
shapes = (
{
closed = 1;
nodes = (
(600,800,l),
(400,800,l),
(0,400,l),
(0,200,l)
);
}
);
width = 800;
}
);
note = uniF50A;
unicode = 62730;
},
{
glyphname = uniF509;
layers = (
{
layerId = m01;
shapes = (
{
closed = 1;
nodes = (
(400,800,l),
(200,800,l),
(0,600,l),
(0,400,l)
);
}
);
width = 800;
}
);
note = uniF509;
unicode = 62729;
},
{
glyphname = uniF50B;
layers = (
{
layerId = m01;
shapes = (
{
closed = 1;
nodes = (
(600,800,l),
(200,800,l),
(0,600,l),
(0,200,l)
);
}
);
width = 800;
}
);
note = uniF50B;
unicode = 62731;
},
{
glyphname = uniF50C;
layers = (
{
layerId = m01;
shapes = (
{
closed = 1;
nodes = (
(800,800,l),
(200,800,l),
(0,600,l),
(0,0,l)
);
}
);
width = 800;
}
);
note = uniF50C;
unicode = 62732;
},
{
glyphname = uniE338;
layers = (
{
layerId = m01;
shapes = (
{
closed = 1;
nodes = (
(0,200,l),
(0,0,l),
(200,0,l),
(800,600,l),
(800,800,l),
(600,800,l)
);
}
);
width = 800;
}
);
note = uniE338;
unicode = 58168;
},
{
glyphname = uniE038;
layers = (
{
layerId = m01;
shapes = (
{
closed = 1;
nodes = (
(800,400,l),
(800,800,l),
(0,400,l),
(0,0,l)
);
}
);
width = 800;
}
);
note = uniE038;
unicode = 57400;
},
{
glyphname = uniE033;
layers = (
{
layerId = m01;
shapes = (
{
closed = 1;
nodes = (
(800,200,l),
(800,800,l),
(0,600,l),
(0,0,l)
);
}
);
width = 800;
}
);
note = uniE033;
unicode = 57395;
},
{
glyphname = uniE034;
layers = (
{
layerId = m01;
shapes = (
{
closed = 1;
nodes = (
(800,400,l),
(800,800,l),
(0,600,l),
(0,0,l)
);
}
);
width = 800;
}
);
note = uniE034;
unicode = 57396;
},
{
glyphname = uniE0D0;
layers = (
{
layerId = m01;
shapes = (
{
closed = 1;
nodes = (
(800,0,l),
(800,800,ls),
(800,200,o),
(600,0,o),
(0,0,cs)
);
}
);
width = 800;
}
);
note = uniE0D0;
unicode = 57552;
},
{
glyphname = uniE0D1;
layers = (
{
layerId = m01;
shapes = (
{
closed = 1;
nodes = (
(800,0,l),
(800,600,ls),
(800,150,o),
(600,0,o),
(0,0,cs)
);
}
);
width = 800;
}
);
note = uniE0D1;
unicode = 57553;
},
{
glyphname = uniE0D2;
layers = (
{
layerId = m01;
shapes = (
{
closed = 1;
nodes = (
(800,0,l),
(800,400,ls),
(800,100,o),
(600,0,o),
(0,0,cs)
);
}
);
width = 800;
}
);
note = uniE0D2;
unicode = 57554;
},
{
glyphname = uniE0D3;
layers = (
{
layerId = m01;
shapes = (
{
closed = 1;
nodes = (
(800,0,l),
(800,200,ls),
(800,50,o),
(600,0,o),
(0,0,cs)
);
}
);
width = 800;
}
);
note = uniE0D3;
unicode = 57555;
},
{
glyphname = uniE151;
layers = (
{
layerId = m01;
shapes = (
{
closed = 1;
nodes = (
(800,0,l),
(800,600,ls),
(800,200,o),
(600,0,o),
(200,0,cs)
);
}
);
width = 800;
}
);
note = uniE151;
unicode = 57681;
},
{
glyphname = uniE152;
layers = (
{
layerId = m01;
shapes = (
{
closed = 1;
nodes = (
(800,0,l),
(800,400,ls),
(800,100,o),
(700,0,o),
(400,0,cs)
);
}
);
width = 800;
}
);
note = uniE152;
unicode = 57682;
},
{
glyphname = uniE153;
layers = (
{
layerId = m01;
shapes = (
{
closed = 1;
nodes = (
(800,0,l),
(800,200,ls),
(800,50,o),
(750,0,o),
(600,0,cs)
);
}
);
width = 800;
}
);
note = uniE153;
unicode = 57683;
},
{
glyphname = uniE0D4;
layers = (
{
layerId = m01;
shapes = (
{
closed = 1;
nodes = (
(800,0,l),
(800,400,ls),
(800,250,o),
(600,200,o),
(0,200,c),
(0,0,l)
);
}
);
width = 800;
}
);
note = uniE0D4;
unicode = 57556;
},
{
glyphname = uniE0D5;
layers = (
{
layerId = m01;
shapes = (
{
closed = 1;
nodes = (
(800,0,l),
(800,600,ls),
(800,300,o),
(600,200,o),
(0,200,c),
(0,0,l)
);
}
);
width = 800;
}
);
note = uniE0D5;
unicode = 57557;
},
{
glyphname = uniE0D6;
layers = (
{
layerId = m01;
shapes = (
{
closed = 1;
nodes = (
(800,0,l),
(800,800,ls),
(800,350,o),
(600,200,o),
(0,200,c),
(0,0,l)
);
}
);
width = 800;
}
);
note = uniE0D6;
unicode = 57558;
},
{
glyphname = uniE0D7;
layers = (
{
layerId = m01;
shapes = (
{
closed = 1;
nodes = (
(800,0,l),
(800,600,ls),
(800,450,o),
(600,400,o),
(0,400,c),
(0,0,l)
);
}
);
width = 800;
}
);
note = uniE0D7;
unicode = 57559;
},
{
glyphname = uniE0D8;
layers = (
{
layerId = m01;
shapes = (
{
closed = 1;
nodes = (
(800,0,l),
(800,800,ls),
(800,500,o),
(600,400,o),
(0,400,c),
(0,0,l)
);
}
);
width = 800;
}
);
note = uniE0D8;
unicode = 57560;
},
{
glyphname = uniE0D9;
layers = (
{
layerId = m01;
shapes = (
{
closed = 1;
nodes = (
(800,0,l),
(800,800,ls),
(800,650,o),
(600,600,o),
(0,600,c),
(0,0,l)
);
}
);
width = 800;
}
);
note = uniE0D9;
unicode = 57561;
},
{
glyphname = uniE604;
layers = (
{
layerId = m01;
shapes = (
{
closed = 1;
nodes = (
(800,0,l),
(800,450,o),
(450,800,o),
(0,800,c),
(0,0,l)
);
}
);
width = 800;
}
);
note = uniE604;
unicode = 58884;
},
{
glyphname = uniE702;
layers = (
{
layerId = m01;
shapes = (
{
closed = 1;
nodes = (
(600,0,l),
(600,338,o),
(338,600,o),
(0,600,c),
(0,0,l)
);
}
);
width = 800;
}
);
note = uniE702;
unicode = 59138;
},
{
glyphname = uniE703;
layers = (
{
layerId = m01;
shapes = (
{
closed = 1;
nodes = (
(400,0,l),
(400,225,o),
(225,400,o),
(0,400,c),
(0,0,l)
);
}
);
width = 800;
}
);
note = uniE703;
unicode = 59139;
},
{
glyphname = uniE704;
layers = (
{
layerId = m01;
shapes = (
{
closed = 1;
nodes = (
(200,0,l),
(200,113,o),
(113,200,o),
(0,200,c),
(0,0,l)
);
}
);
width = 800;
}
);
note = uniE704;
unicode = 59140;
},
{
glyphname = uniF5DC;
layers = (
{
layerId = m01;
shapes = (
{
closed = 1;
nodes = (
(0,200,l),
(0,0,l),
(400,0,l),
(400,113,o),
(313,200,o),
(200,200,cs)
);
}
);
width = 800;
}
);
note = uniF5DC;
unicode = 62940;
},
{
glyphname = uniF5DF;
layers = (
{
layerId = m01;
shapes = (
{
closed = 1;
nodes = (
(0,200,l),
(0,0,l),
(600,0,l),
(600,113,o),
(513,200,o),
(400,200,cs)
);
}
);
width = 800;
}
);
note = uniF5DF;
unicode = 62943;
},
{
glyphname = uniF5DD;
layers = (
{
layerId = m01;
shapes = (
{
closed = 1;
nodes = (
(0,200,l),
(0,0,l),
(800,0,l),
(800,113,o),
(713,200,o),
(600,200,cs)
);
}
);
width = 800;
}
);
note = uniF5DD;
unicode = 62941;
},
{
glyphname = uniE429;
layers = (
{
layerId = m01;
shapes = (
{
closed = 1;
nodes = (
(0,400,l),
(0,0,l),
(400,0,l),
(400,200,ls),
(400,313,o),
(313,400,o),
(200,400,cs)
);
}
);
width = 800;
}
);
note = uniE429;
unicode = 58409;
},
{
glyphname = uniE426;
layers = (
{
layerId = m01;
shapes = (
{
closed = 1;
nodes = (
(0,400,l),
(0,0,l),
(600,0,l),
(600,200,ls),
(600,313,o),
(513,400,o),
(400,400,cs)
);
}
);
width = 800;
}
);
note = uniE426;
unicode = 58406;
},
{
glyphname = uniE422;
layers = (
{
layerId = m01;
shapes = (
{
closed = 1;
nodes = (
(0,400,l),
(0,0,l),
(800,0,l),
(800,200,ls),
(800,313,o),
(713,400,o),
(600,400,cs)
);
}
);
width = 800;
}
);
note = uniE422;
unicode = 58402;
},
{
glyphname = uniE423;
layers = (
{
layerId = m01;
shapes = (
{
closed = 1;
nodes = (
(0,600,l),
(0,0,l),
(800,0,l),
(800,400,ls),
(800,513,o),
(713,600,o),
(600,600,cs)
);
}
);
width = 800;
}
);
note = uniE423;
unicode = 58403;
},
{
glyphname = uniE427;
layers = (
{
layerId = m01;
shapes = (
{
closed = 1;
nodes = (
(0,600,l),
(0,0,l),
(600,0,l),
(600,400,ls),
(600,513,o),
(513,600,o),
(400,600,cs)
);
}
);
width = 800;
}
);
note = uniE427;
unicode = 58407;
},
{
glyphname = uniE424;
layers = (
{
layerId = m01;
shapes = (
{
closed = 1;
nodes = (
(0,800,l),
(0,0,l),
(800,0,l),
(800,600,ls),
(800,713,o),
(713,800,o),
(600,800,cs)
);
}
);
width = 800;
}
);
note = uniE424;
unicode = 58404;
},
{
glyphname = uniE42D;
layers = (
{
layerId = m01;
shapes = (
{
closed = 1;
nodes = (
(0,400,l),
(0,0,l),
(600,0,l),
(600,225,o),
(425,400,o),
(200,400,cs)
);
}
);
width = 800;
}
);
note = uniE42D;
unicode = 58413;
},
{
glyphname = uniE42A;
layers = (
{
layerId = m01;
shapes = (
{
closed = 1;
nodes = (
(0,400,l),
(0,0,l),
(800,0,l),
(800,225,o),
(625,400,o),
(400,400,cs)
);
}
);
width = 800;
}
);
note = uniE42A;
unicode = 58410;
},
{
glyphname = uniE42E;
layers = (
{
layerId = m01;
shapes = (
{
closed = 1;
nodes = (
(0,600,l),
(0,0,l),
(600,0,l),
(600,200,ls),
(600,425,o),
(425,600,o),
(200,600,cs)
);
}
);
width = 800;
}
);
note = uniE42E;
unicode = 58414;
},
{
glyphname = uniE42B;
layers = (
{
layerId = m01;
shapes = (
{
closed = 1;
nodes = (
(0,600,l),
(0,0,l),
(800,0,l),
(800,200,ls),
(800,425,o),
(625,600,o),
(400,600,cs)
);
}
);
width = 800;
}
);
note = uniE42B;
unicode = 58411;
},
{
glyphname = uniE42C;
layers = (
{
layerId = m01;
shapes = (
{
closed = 1;
nodes = (
(0,800,l),
(0,0,l),
(800,0,l),
(800,400,ls),
(800,625,o),
(625,800,o),
(400,800,cs)
);
}
);
width = 800;
}
);
note = uniE42C;
unicode = 58412;
},
{
glyphname = uniE42F;
layers = (
{
layerId = m01;
shapes = (
{
closed = 1;
nodes = (
(0,600,l),
(0,0,l),
(800,0,l),
(800,338,o),
(538,600,o),
(200,600,cs)
);
}
);
width = 800;
}
);
note = uniE42F;
unicode = 58415;
},
{
glyphname = uniE430;
layers = (
{
layerId = m01;
shapes = (
{
closed = 1;
nodes = (
(0,800,l),
(0,0,l),
(800,0,l),
(800,200,ls),
(800,538,o),
(538,800,o),
(200,800,cs)
);
}
);
width = 800;
}
);
note = uniE430;
unicode = 58416;
},
{
glyphname = uniE221;
layers = (
{
layerId = m01;
shapes = (
{
closed = 1;
nodes = (
(800,0,l),
(800,200,o),
(600,400,o),
(400,400,cs),
(200,400,o),
(0,200,o),
(0,0,c)
);
}
);
width = 800;
}
);
note = uniE221;
unicode = 57889;
},
{
glyphname = uniF574;
layers = (
{
layerId = m01;
shapes = (
{
closed = 1;
nodes = (
(800,0,l),
(800,200,ls),
(800,400,o),
(600,600,o),
(400,600,cs),
(200,600,o),
(0,400,o),
(0,200,cs),
(0,0,l)
);
}
);
width = 800;
}
);
note = uniF574;
unicode = 62836;
},
{
glyphname = uniF575;
layers = (
{
layerId = m01;
shapes = (
{
closed = 1;
nodes = (
(800,0,l),
(800,400,ls),
(800,600,o),
(600,800,o),
(400,800,cs),
(200,800,o),
(0,600,o),
(0,400,cs),
(0,0,l)
);
}
);
width = 800;
}
);
note = uniF575;
unicode = 62837;
},
{
glyphname = uniE08B;
layers = (
{
layerId = m01;
shapes = (
{
closed = 1;
nodes = (
(400,0,ls),
(100,0,o),
(0,200,o),
(0,800,cs),
(0,0,l)
);
},
{
closed = 1;
nodes = (
(800,0,l),
(800,800,ls),
(800,200,o),
(700,0,o),
(400,0,cs)
);
}
);
width = 800;
}
);
note = uniE08B;
unicode = 57483;
},
{
glyphname = uniE08C;
layers = (
{
layerId = m01;
shapes = (
{
closed = 1;
nodes = (
(400,0,ls),
(100,0,o),
(0,150,o),
(0,600,cs),
(0,0,l)
);
},
{
closed = 1;
nodes = (
(800,0,l),
(800,600,ls),
(800,150,o),
(700,0,o),
(400,0,cs)
);
}
);
width = 800;
}
);
note = uniE08C;
unicode = 57484;
},
{
glyphname = uniE08D;
layers = (
{
layerId = m01;
shapes = (
{
closed = 1;
nodes = (
(400,0,ls),
(100,0,o),
(0,100,o),
(0,400,cs),
(0,0,l)
);
},
{
closed = 1;
nodes = (
(800,0,l),
(800,400,ls),
(800,100,o),
(700,0,o),
(400,0,cs)
);
}
);
width = 800;
}
);
note = uniE08D;
unicode = 57485;
},
{
glyphname = uniE08E;
layers = (
{
layerId = m01;
shapes = (
{
closed = 1;
nodes = (
(400,0,ls),
(100,0,o),
(0,50,o),
(0,200,cs),
(0,0,l)
);
},
{
closed = 1;
nodes = (
(800,0,l),
(800,200,ls),
(800,50,o),
(700,0,o),
(400,0,cs)
);
}
);
width = 800;
}
);
note = uniE08E;
unicode = 57486;
},
{
glyphname = uniE091;
layers = (
{
layerId = m01;
shapes = (
{
closed = 1;
nodes = (
(800,0,l),
(800,400,ls),
(800,250,o),
(700,200,o),
(400,200,cs),
(100,200,o),
(0,250,o),
(0,400,cs),
(0,0,l)
);
}
);
width = 800;
}
);
note = uniE091;
unicode = 57489;
},
{
glyphname = uniE090;
layers = (
{
layerId = m01;
shapes = (
{
closed = 1;
nodes = (
(800,0,l),
(800,600,ls),
(800,300,o),
(700,200,o),
(400,200,cs),
(100,200,o),
(0,300,o),
(0,600,cs),
(0,0,l)
);
}
);
width = 800;
}
);
note = uniE090;
unicode = 57488;
},
{
glyphname = uniE08F;
layers = (
{
layerId = m01;
shapes = (
{
closed = 1;
nodes = (
(800,0,l),
(800,800,ls),
(800,350,o),
(700,200,o),
(400,200,cs),
(100,200,o),
(0,350,o),
(0,800,cs),
(0,0,l)
);
}
);
width = 800;
}
);
note = uniE08F;
unicode = 57487;
},
{
glyphname = uniE093;
layers = (
{
layerId = m01;
shapes = (
{
closed = 1;
nodes = (
(800,0,l),
(800,600,ls),
(800,450,o),
(700,400,o),
(400,400,cs),
(100,400,o),
(0,450,o),
(0,600,cs),
(0,0,l)
);
}
);
width = 800;
}
);
note = uniE093;
unicode = 57491;
},
{
glyphname = uniE092;
layers = (
{
layerId = m01;
shapes = (
{
closed = 1;
nodes = (
(800,0,l),
(800,800,ls),
(800,500,o),
(700,400,o),
(400,400,cs),
(100,400,o),
(0,500,o),
(0,800,cs),
(0,0,l)
);
}
);
width = 800;
}
);
note = uniE092;
unicode = 57490;
},
{
glyphname = uniE094;
layers = (
{
layerId = m01;
shapes = (
{
closed = 1;
nodes = (
(800,0,l),
(800,800,ls),
(800,650,o),
(700,600,o),
(400,600,cs),
(100,600,o),
(0,650,o),
(0,800,cs),
(0,0,l)
);
}
);
width = 800;
}
);
note = uniE094;
unicode = 57492;
},
{
glyphname = uniE431;
layers = (
{
layerId = m01;
shapes = (
{
closed = 1;
nodes = (
(400,0,l),
(550,600,ls),
(600,800,o),
(400,800,o),
(350,600,cs),
(200,0,l)
);
}
);
width = 800;
}
);
note = uniE431;
unicode = 58417;
},
{
glyphname = uniE432;
layers = (
{
layerId = m01;
shapes = (
{
closed = 1;
nodes = (
(200,0,l),
(350,600,ls),
(400,800,o),
(200,800,o),
(150,600,cs),
(0,0,l)
);
}
);
width = 800;
}
);
note = uniE432;
unicode = 58418;
},
{
glyphname = uniE433;
layers = (
{
layerId = m01;
shapes = (
{
closed = 1;
nodes = (
(600,0,l),
(750,600,ls),
(800,800,o),
(400,800,o),
(350,600,cs),
(200,0,l)
);
}
);
width = 800;
}
);
note = uniE433;
unicode = 58419;
},
{
glyphname = uniE434;
layers = (
{
layerId = m01;
shapes = (
{
closed = 1;
nodes = (
(400,0,l),
(550,600,ls),
(600,800,o),
(200,800,o),
(150,600,cs),
(0,0,l)
);
}
);
width = 800;
}
);
note = uniE434;
unicode = 58420;
},
{
glyphname = uniE435;
layers = (
{
layerId = m01;
shapes = (
{
closed = 1;
nodes = (
(600,0,l),
(750,600,ls),
(800,800,o),
(200,800,o),
(150,600,cs),
(0,0,l)
);
}
);
width = 800;
}
);
note = uniE435;
unicode = 58421;
},
{
glyphname = uniE436;
layers = (
{
layerId = m01;
shapes = (
{
closed = 1;
nodes = (
(200,0,l),
(500,600,ls),
(600,800,o),
(400,800,o),
(300,600,cs),
(0,0,l)
);
}
);
width = 800;
}
);
note = uniE436;
unicode = 58422;
},
{
glyphname = uniE437;
layers = (
{
layerId = m01;
shapes = (
{
closed = 1;
nodes = (
(400,0,l),
(700,600,ls),
(800,800,o),
(600,800,o),
(500,600,cs),
(200,0,l)
);
}
);
width = 800;
}
);
note = uniE437;
unicode = 58423;
},
{
glyphname = uniE438;
layers = (
{
layerId = m01;
shapes = (
{
closed = 1;
nodes = (
(400,0,l),
(700,600,ls),
(800,800,o),
(400,800,o),
(300,600,cs),
(0,0,l)
);
}
);
width = 800;
}
);
note = uniE438;
unicode = 58424;
},
{
glyphname = uniE439;
layers = (
{
layerId = m01;
shapes = (
{
closed = 1;
nodes = (
(400,0,l),
(600,100,ls),
(800,200,o),
(800,400,o),
(600,300,cs),
(0,0,l)
);
}
);
width = 800;
}
);
note = uniE439;
unicode = 58425;
},
{
glyphname = uniE43A;
layers = (
{
layerId = m01;
shapes = (
{
closed = 1;
nodes = (
(400,600,ls),
(600,700,o),
(500,850,o),
(300,750,cs),
(0,600,l),
(0,400,l)
);
}
);
width = 800;
}
);
note = uniE43A;
unicode = 58426;
},
{
glyphname = uniE43B;
layers = (
{
layerId = m01;
shapes = (
{
closed = 1;
nodes = (
(200,0,l),
(600,400,ls),
(800,600,o),
(800,800,o),
(600,600,cs),
(0,0,l)
);
}
);
width = 800;
}
);
note = uniE43B;
unicode = 58427;
},
{
glyphname = uniE43C;
layers = (
{
layerId = m01;
shapes = (
{
closed = 1;
nodes = (
(600,600,ls),
(800,800,o),
(200,800,o),
(0,600,c),
(0,0,l)
);
}
);
width = 800;
}
);
note = uniE43C;
unicode = 58428;
},
{
glyphname = uniE43D;
layers = (
{
layerId = m01;
shapes = (
{
closed = 1;
nodes = (
(400,600,ls),
(600,800,o),
(200,800,o),
(0,600,c),
(0,200,l)
);
}
);
width = 800;
}
);
note = uniE43D;
unicode = 58429;
},
{
glyphname = uniE43E;
layers = (
{
layerId = m01;
shapes = (
{
closed = 1;
nodes = (
(200,600,ls),
(400,800,o),
(200,800,o),
(0,600,c),
(0,400,l)
);
}
);
width = 800;
}
);
note = uniE43E;
unicode = 58430;
},
{
glyphname = uniE43F;
layers = (
{
layerId = m01;
shapes = (
{
closed = 1;
nodes = (
(400,600,ls),
(600,800,o),
(400,800,o),
(200,600,cs),
(0,400,l),
(0,200,l)
);
}
);
width = 800;
}
);
note = uniE43F;
unicode = 58431;
},
{
glyphname = uniE000;
layers = (
{
layerId = m01;
shapes = (
{
closed = 1;
nodes = (
(800,0,l),
(800,200,l),
(400,200,o),
(400,0,o),
(0,0,cs)
);
}
);
width = 800;
}
);
note = uniE000;
unicode = 57344;
},
{
glyphname = uniE001;
layers = (
{
layerId = m01;
shapes = (
{
closed = 1;
nodes = (
(800,0,l),
(800,400,l),
(400,400,o),
(400,0,o),
(0,0,cs)
);
}
);
width = 800;
}
);
note = uniE001;
unicode = 57345;
},
{
glyphname = uniE002;
layers = (
{
layerId = m01;
shapes = (
{
closed = 1;
nodes = (
(800,0,l),
(800,600,l),
(400,600,o),
(400,0,o),
(0,0,cs)
);
}
);
width = 800;
}
);
note = uniE002;
unicode = 57346;
},
{
glyphname = uniE003;
layers = (
{
layerId = m01;
shapes = (
{
closed = 1;
nodes = (
(800,0,l),
(800,800,l),
(400,800,o),
(400,0,o),
(0,0,cs)
);
}
);
width = 800;
}
);
note = uniE003;
unicode = 57347;
},
{
glyphname = uniE004;
layers = (
{
layerId = m01;
shapes = (
{
closed = 1;
nodes = (
(800,0,l),
(800,600,l),
(400,600,o),
(400,200,o),
(0,200,c),
(0,0,l)
);
}
);
width = 800;
}
);
note = uniE004;
unicode = 57348;
},
{
glyphname = uniE005;
layers = (
{
layerId = m01;
shapes = (
{
closed = 1;
nodes = (
(800,0,l),
(800,400,l),
(400,400,o),
(400,200,o),
(0,200,c),
(0,0,l)
);
}
);
width = 800;
}
);
note = uniE005;
unicode = 57349;
},
{
glyphname = uniF5BF;
layers = (
{
layerId = m01;
shapes = (
{
closed = 1;
nodes = (
(800,0,l),
(800,200,l),
(200,200,l),
(0,0,l)
);
}
);
width = 800;
}
);
note = uniF5BF;
unicode = 62911;
},
{
glyphname = uniF5C4;
layers = (
{
layerId = m01;
shapes = (
{
closed = 1;
nodes = (
(800,0,l),
(800,200,l),
(400,200,l),
(0,0,l)
);
}
);
width = 800;
}
);
note = uniF5C4;
unicode = 62916;
},
{
glyphname = uniF5C6;
layers = (
{
layerId = m01;
shapes = (
{
closed = 1;
nodes = (
(800,0,l),
(800,400,l),
(200,400,l),
(0,0,l)
);
}
);
width = 800;
}
);
note = uniF5C6;
unicode = 62918;
},
{
glyphname = uniF5C0;
layers = (
{
layerId = m01;
shapes = (
{
closed = 1;
nodes = (
(800,0,l),
(800,400,l),
(400,400,l),
(0,0,l)
);
}
);
width = 800;
}
);
note = uniF5C0;
unicode = 62912;
},
{
glyphname = uniF5C1;
layers = (
{
layerId = m01;
shapes = (
{
closed = 1;
nodes = (
(800,0,l),
(800,600,l),
(600,600,l),
(0,0,l)
);
}
);
width = 800;
}
);
note = uniF5C1;
unicode = 62913;
},
{
glyphname = uniE10F;
layers = (
{
layerId = m01;
shapes = (
{
closed = 1;
nodes = (
(800,0,l),
(600,800,l),
(200,800,l),
(0,0,l)
);
}
);
width = 800;
}
);
note = uniE10F;
unicode = 57615;
},
{
glyphname = uniE111;
layers = (
{
layerId = m01;
shapes = (
{
closed = 1;
nodes = (
(800,0,l),
(600,400,l),
(200,400,l),
(0,0,l)
);
}
);
width = 800;
}
);
note = uniE111;
unicode = 57617;
},
{
glyphname = uniE112;
layers = (
{
layerId = m01;
shapes = (
{
closed = 1;
nodes = (
(800,0,l),
(600,200,l),
(200,200,l),
(0,0,l)
);
}
);
width = 800;
}
);
note = uniE112;
unicode = 57618;
},
{
glyphname = uniE10D;
layers = (
{
layerId = m01;
shapes = (
{
closed = 1;
nodes = (
(800,0,l),
(400,400,l),
(200,400,l),
(0,0,l)
);
}
);
width = 800;
}
);
note = uniE10D;
unicode = 57613;
},
{
glyphname = uniE10E;
layers = (
{
layerId = m01;
shapes = (
{
closed = 1;
nodes = (
(800,0,l),
(400,200,l),
(200,200,l),
(0,0,l)
);
}
);
width = 800;
}
);
note = uniE10E;
unicode = 57614;
},
{
glyphname = uniE028;
layers = (
{
layerId = m01;
shapes = (
{
closed = 1;
nodes = (
(800,0,l),
(800,200,l),
(400,600,l),
(0,200,l),
(0,0,l)
);
}
);
width = 800;
}
);
note = uniE028;
unicode = 57384;
},
{
glyphname = uniE029;
layers = (
{
layerId = m01;
shapes = (
{
closed = 1;
nodes = (
(800,0,l),
(800,200,l),
(400,400,l),
(0,200,l),
(0,0,l)
);
}
);
width = 800;
}
);
note = uniE029;
unicode = 57385;
},
{
glyphname = uniE02A;
layers = (
{
layerId = m01;
shapes = (
{
closed = 1;
nodes = (
(800,0,l),
(800,400,l),
(400,800,l),
(0,400,l),
(0,0,l)
);
}
);
width = 800;
}
);
note = uniE02A;
unicode = 57386;
},
{
glyphname = uniE02B;
layers = (
{
layerId = m01;
shapes = (
{
closed = 1;
nodes = (
(800,0,l),
(800,400,l),
(400,600,l),
(0,400,l),
(0,0,l)
);
}
);
width = 800;
}
);
note = uniE02B;
unicode = 57387;
},
{
glyphname = uniE02C;
layers = (
{
layerId = m01;
shapes = (
{
closed = 1;
nodes = (
(800,0,l),
(800,600,l),
(400,800,l),
(0,600,l),
(0,0,l)
);
}
);
width = 800;
}
);
note = uniE02C;
unicode = 57388;
},
{
glyphname = uniE032;
layers = (
{
layerId = m01;
shapes = (
{
closed = 1;
nodes = (
(800,200,l),
(800,600,l),
(400,800,l),
(0,600,l),
(0,200,l),
(400,0,l)
);
}
);
width = 800;
}
);
note = uniE032;
unicode = 57394;
},
{
glyphname = uniE030;
layers = (
{
layerId = m01;
shapes = (
{
closed = 1;
nodes = (
(800,200,l),
(800,400,l),
(400,800,l),
(0,400,l),
(0,200,l),
(400,0,l)
);
}
);
width = 800;
}
);
note = uniE030;
unicode = 57392;
},
{
glyphname = uniE031;
layers = (
{
layerId = m01;
shapes = (
{
closed = 1;
nodes = (
(800,200,l),
(800,400,l),
(400,600,l),
(0,400,l),
(0,200,l),
(400,0,l)
);
}
);
width = 800;
}
);
note = uniE031;
unicode = 57393;
},
{
glyphname = uniE026;
layers = (
{
layerId = m01;
shapes = (
{
closed = 1;
nodes = (
(800,0,l),
(400,200,l),
(0,0,l)
);
}
);
width = 800;
}
);
note = uniE026;
unicode = 57382;
},
{
glyphname = uniE025;
layers = (
{
layerId = m01;
shapes = (
{
closed = 1;
nodes = (
(800,0,l),
(400,400,l),
(0,0,l)
);
}
);
width = 800;
}
);
note = uniE025;
unicode = 57381;
},
{
glyphname = uniE023;
layers = (
{
layerId = m01;
shapes = (
{
closed = 1;
nodes = (
(800,0,l),
(400,800,l),
(0,0,l)
);
}
);
width = 800;
}
);
note = uniE023;
unicode = 57379;
},
{
glyphname = uniE50E;
layers = (
{
layerId = m01;
shapes = (
{
closed = 1;
nodes = (
(600,0,l),
(400,800,l),
(200,0,l)
);
}
);
width = 800;
}
);
note = uniE50E;
unicode = 58638;
},
{
glyphname = uniF54E;
layers = (
{
layerId = m01;
shapes = (
{
closed = 1;
nodes = (
(600,0,l),
(200,800,l),
(0,0,l)
);
}
);
width = 800;
}
);
note = uniF54E;
unicode = 62798;
},
{
glyphname = uniF54F;
layers = (
{
layerId = m01;
shapes = (
{
closed = 1;
nodes = (
(600,0,l),
(400,800,l),
(0,0,l)
);
}
);
width = 800;
}
);
note = uniF54F;
unicode = 62799;
},
{
glyphname = uniF550;
layers = (
{
layerId = m01;
shapes = (
{
closed = 1;
nodes = (
(600,0,l),
(600,600,l),
(0,0,l)
);
}
);
width = 800;
}
);
note = uniF550;
unicode = 62800;
},
{
glyphname = uniF551;
layers = (
{
layerId = m01;
shapes = (
{
closed = 1;
nodes = (
(600,0,l),
(800,800,l),
(0,0,l)
);
}
);
width = 800;
}
);
note = uniF551;
unicode = 62801;
},
{
glyphname = uniF553;
layers = (
{
layerId = m01;
shapes = (
{
closed = 1;
nodes = (
(600,0,l),
(800,400,l),
(0,0,l)
);
}
);
width = 800;
}
);
note = uniF553;
unicode = 62803;
},
{
glyphname = uniF554;
layers = (
{
layerId = m01;
shapes = (
{
closed = 1;
nodes = (
(600,0,l),
(800,200,l),
(0,0,l)
);
}
);
width = 800;
}
);
note = uniF554;
unicode = 62804;
},
{
glyphname = uniF547;
layers = (
{
layerId = m01;
shapes = (
{
closed = 1;
nodes = (
(400,0,l),
(800,200,l),
(0,0,l)
);
}
);
width = 800;
}
);
note = uniF547;
unicode = 62791;
},
{
glyphname = uniF548;
layers = (
{
layerId = m01;
shapes = (
{
closed = 1;
nodes = (
(400,0,l),
(800,400,l),
(0,0,l)
);
}
);
width = 800;
}
);
note = uniF548;
unicode = 62792;
},
{
glyphname = uniF54A;
layers = (
{
layerId = m01;
shapes = (
{
closed = 1;
nodes = (
(400,0,l),
(800,800,l),
(0,0,l)
);
}
);
width = 800;
}
);
note = uniF54A;
unicode = 62794;
},
{
glyphname = uniF54C;
layers = (
{
layerId = m01;
shapes = (
{
closed = 1;
nodes = (
(400,0,l),
(400,800,l),
(0,0,l)
);
}
);
width = 800;
}
);
note = uniF54C;
unicode = 62796;
},
{
glyphname = uniF54D;
layers = (
{
layerId = m01;
shapes = (
{
closed = 1;
nodes = (
(400,0,l),
(200,800,l),
(0,0,l)
);
}
);
width = 800;
}
);
note = uniF54D;
unicode = 62797;
},
{
glyphname = uniF520;
layers = (
{
layerId = m01;
shapes = (
{
closed = 1;
nodes = (
(600,0,l),
(200,800,l),
(200,0,l)
);
}
);
width = 800;
}
);
note = uniF520;
unicode = 62752;
},
{
glyphname = uniF521;
layers = (
{
layerId = m01;
shapes = (
{
closed = 1;
nodes = (
(400,0,l),
(0,200,l),
(200,0,l)
);
}
);
width = 800;
}
);
note = uniF521;
unicode = 62753;
},
{
glyphname = uniF524;
layers = (
{
layerId = m01;
shapes = (
{
closed = 1;
nodes = (
(400,0,l),
(0,800,l),
(200,0,l)
);
}
);
width = 800;
}
);
note = uniF524;
unicode = 62756;
},
{
glyphname = uniF525;
layers = (
{
layerId = m01;
shapes = (
{
closed = 1;
nodes = (
(400,0,l),
(200,800,l),
(200,0,l)
);
}
);
width = 800;
}
);
note = uniF525;
unicode = 62757;
},
{
glyphname = uniF526;
layers = (
{
layerId = m01;
shapes = (
{
closed = 1;
nodes = (
(400,0,l),
(400,800,l),
(200,0,l)
);
}
);
width = 800;
}
);
note = uniF526;
unicode = 62758;
},
{
glyphname = uniF527;
layers = (
{
layerId = m01;
shapes = (
{
closed = 1;
nodes = (
(400,0,l),
(600,800,l),
(200,0,l)
);
}
);
width = 800;
}
);
note = uniF527;
unicode = 62759;
},
{
glyphname = uniF541;
layers = (
{
layerId = m01;
shapes = (
{
closed = 1;
nodes = (
(200,0,l),
(400,800,l),
(0,0,l)
);
}
);
width = 800;
}
);
note = uniF541;
unicode = 62785;
},
{
glyphname = uniF540;
layers = (
{
layerId = m01;
shapes = (
{
closed = 1;
nodes = (
(200,0,l),
(200,800,l),
(0,0,l)
);
}
);
width = 800;
}
);
note = uniF540;
unicode = 62784;
},
{
glyphname = uniE100;
layers = (
{
layerId = m01;
shapes = (
{
closed = 1;
nodes = (
(400,200,l),
(800,0,l),
(800,200,l),
(400,400,l),
(0,200,l),
(0,0,l)
);
}
);
width = 800;
}
);
note = uniE100;
unicode = 57600;
},
{
glyphname = uniE103;
layers = (
{
layerId = m01;
shapes = (
{
closed = 1;
nodes = (
(200,0,l),
(400,200,l),
(600,0,l),
(800,0,l),
(400,400,l),
(0,0,l)
);
}
);
width = 800;
}
);
note = uniE103;
unicode = 57603;
},
{
glyphname = uniE105;
layers = (
{
layerId = m01;
shapes = (
{
closed = 1;
nodes = (
(200,0,l),
(400,400,l),
(600,0,l),
(800,0,l),
(400,800,l),
(0,0,l)
);
}
);
width = 800;
}
);
note = uniE105;
unicode = 57605;
},
{
glyphname = uniF57A;
layers = (
{
layerId = m01;
shapes = (
{
closed = 1;
nodes = (
(200,0,l),
(600,400,l),
(800,200,l),
(800,400,l),
(600,600,l),
(0,0,l)
);
}
);
width = 800;
}
);
note = uniF57A;
unicode = 62842;
},
{
glyphname = uniF57C;
layers = (
{
layerId = m01;
shapes = (
{
closed = 1;
nodes = (
(800,200,l),
(200,800,l),
(0,600,l),
(0,400,l),
(200,600,l),
(800,0,l)
);
}
);
width = 800;
}
);
note = uniF57C;
unicode = 62844;
},
{
glyphname = uniF57D;
layers = (
{
layerId = m01;
shapes = (
{
closed = 1;
nodes = (
(800,0,l),
(400,400,l),
(0,400,l),
(0,200,l),
(400,200,l),
(600,0,l)
);
}
);
width = 800;
}
);
note = uniF57D;
unicode = 62845;
},
{
glyphname = uniF57E;
layers = (
{
layerId = m01;
shapes = (
{
closed = 1;
nodes = (
(800,200,l),
(400,400,l),
(0,400,l),
(0,200,l),
(400,200,l),
(800,0,l)
);
}
);
width = 800;
}
);
note = uniF57E;
unicode = 62846;
},
{
glyphname = uniE010;
layers = (
{
layerId = m01;
shapes = (
{
closed = 1;
nodes = (
(800,0,l),
(800,442,o),
(442,800,o),
(0,800,c),
(0,600,l),
(331,600,o),
(600,331,o),
(600,0,c)
);
}
);
width = 800;
}
);
note = uniE010;
unicode = 57360;
},
{
glyphname = uniE011;
layers = (
{
layerId = m01;
shapes = (
{
closed = 1;
nodes = (
(600,0,l),
(600,331,o),
(331,600,o),
(0,600,c),
(0,400,l),
(220,400,o),
(400,221,o),
(400,0,c)
);
}
);
width = 800;
}
);
note = uniE011;
unicode = 57361;
},
{
glyphname = uniE012;
layers = (
{
layerId = m01;
shapes = (
{
closed = 1;
nodes = (
(400,0,l),
(400,221,o),
(221,400,o),
(0,400,c),
(0,200,l),
(110,200,o),
(200,110,o),
(200,0,c)
);
}
);
width = 800;
}
);
note = uniE012;
unicode = 57362;
},
{
glyphname = uniE206;
layers = (
{
layerId = m01;
shapes = (
{
closed = 1;
nodes = (
(0,600,l),
(220,600,o),
(400,421,o),
(400,200,cs),
(400,0,l),
(600,0,l),
(600,200,ls),
(600,531,o),
(331,800,o),
(0,800,c)
);
}
);
width = 800;
}
);
note = uniE206;
unicode = 57862;
},
{
glyphname = uniE204;
layers = (
{
layerId = m01;
shapes = (
{
closed = 1;
nodes = (
(0,600,l),
(110,600,o),
(200,510,o),
(200,400,cs),
(200,0,l),
(400,0,l),
(400,400,ls),
(400,621,o),
(221,800,o),
(0,800,c)
);
}
);
width = 800;
}
);
note = uniE204;
unicode = 57860;
},
{
glyphname = uniE205;
layers = (
{
layerId = m01;
shapes = (
{
closed = 1;
nodes = (
(0,400,l),
(110,400,o),
(200,310,o),
(200,200,cs),
(200,0,l),
(400,0,l),
(400,200,ls),
(400,421,o),
(221,600,o),
(0,600,c)
);
}
);
width = 800;
}
);
note = uniE205;
unicode = 57861;
},
{
glyphname = uniE250;
layers = (
{
layerId = m01;
shapes = (
{
closed = 1;
nodes = (
(0,800,l),
(0,600,l),
(200,600,ls),
(310,600,o),
(400,510,o),
(400,400,cs),
(400,0,l),
(600,0,l),
(600,400,ls),
(600,621,o),
(421,800,o),
(200,800,cs)
);
}
);
width = 800;
}
);
note = uniE250;
unicode = 57936;
},
{
glyphname = uniE251;
layers = (
{
layerId = m01;
shapes = (
{
closed = 1;
nodes = (
(0,800,l),
(0,600,l),
(400,600,ls),
(510,600,o),
(600,510,o),
(600,400,cs),
(600,0,l),
(800,0,l),
(800,400,ls),
(800,621,o),
(621,800,o),
(400,800,cs)
);
}
);
width = 800;
}
);
note = uniE251;
unicode = 57937;
},
{
glyphname = uniE20A;
layers = (
{
layerId = m01;
shapes = (
{
closed = 1;
nodes = (
(0,200,l),
(400,200,o),
(400,400,o),
(800,400,c),
(800,600,l),
(400,600,o),
(400,400,o),
(0,400,c)
);
}
);
width = 800;
}
);
note = uniE20A;
unicode = 57866;
},
{
glyphname = uniE203;
layers = (
{
layerId = m01;
shapes = (
{
closed = 1;
nodes = (
(0,200,l),
(600,200,o),
(400,400,o),
(800,400,c),
(800,800,l),
(200,800,o),
(400,600,o),
(0,600,c)
);
}
);
width = 800;
}
);
note = uniE203;
unicode = 57859;
},
{
glyphname = uniE202;
layers = (
{
layerId = m01;
shapes = (
{
closed = 1;
nodes = (
(0,0,l),
(600,0,o),
(400,200,o),
(800,200,c),
(800,800,l),
(200,800,o),
(400,600,o),
(0,600,c)
);
}
);
width = 800;
}
);
note = uniE202;
unicode = 57858;
},
{
glyphname = uniE00C;
layers = (
{
layerId = m01;
shapes = (
{
closed = 1;
nodes = (
(0,0,l),
(600,0,o),
(400,600,o),
(800,600,c),
(800,800,l),
(200,800,o),
(400,200,o),
(0,200,c)
);
}
);
width = 800;
}
);
note = uniE00C;
unicode = 57356;
},
{
glyphname = uniE228;
layers = (
{
layerId = m01;
shapes = (
{
closed = 1;
nodes = (
(0,0,l),
(600,0,o),
(400,400,o),
(800,400,c),
(800,800,l),
(200,800,o),
(400,400,o),
(0,400,c)
);
}
);
width = 800;
}
);
note = uniE228;
unicode = 57896;
},
{
glyphname = uniE332;
layers = (
{
layerId = m01;
shapes = (
{
closed = 1;
nodes = (
(0,0,l),
(400,0,o),
(400,400,o),
(800,400,c),
(800,600,l),
(400,600,o),
(400,200,o),
(0,200,c)
);
}
);
width = 800;
}
);
note = uniE332;
unicode = 58162;
},
{
glyphname = uniE626;
layers = (
{
layerId = m01;
shapes = (
{
closed = 1;
nodes = (
(0,200,l),
(200,0,o),
(200,400,o),
(400,200,cs),
(600,0,o),
(600,400,o),
(800,200,c),
(800,400,l),
(600,600,o),
(600,200,o),
(400,400,cs),
(200,600,o),
(200,200,o),
(0,400,c)
);
}
);
width = 800;
}
);
note = uniE626;
unicode = 58918;
},
{
glyphname = uniE627;
layers = (
{
layerId = m01;
shapes = (
{
closed = 1;
nodes = (
(0,200,l),
(200,0,o),
(200,400,o),
(400,200,cs),
(600,0,o),
(600,400,o),
(800,200,c),
(800,600,l),
(600,800,o),
(600,400,o),
(400,600,cs),
(200,800,o),
(200,400,o),
(0,600,c)
);
}
);
width = 800;
}
);
note = uniE627;
unicode = 58919;
},
{
glyphname = uniE01B;
layers = (
{
layerId = m01;
shapes = (
{
closed = 1;
nodes = (
(200,0,l),
(200,110,o),
(290,200,o),
(400,200,cs),
(510,200,o),
(600,110,o),
(600,0,c),
(800,0,l),
(800,221,o),
(621,400,o),
(400,400,cs),
(179,400,o),
(0,221,o),
(0,0,c)
);
}
);
width = 800;
}
);
note = uniE01B;
unicode = 57371;
},
{
glyphname = uniE01C;
layers = (
{
layerId = m01;
shapes = (
{
closed = 1;
nodes = (
(179,600,o),
(0,421,o),
(0,200,cs),
(0,0,l),
(200,0,l),
(200,200,ls),
(200,310,o),
(290,400,o),
(400,400,cs),
(510,400,o),
(600,310,o),
(600,200,cs),
(600,0,l),
(800,0,l),
(800,200,ls),
(800,421,o),
(621,600,o),
(400,600,cs)
);
}
);
width = 800;
}
);
note = uniE01C;
unicode = 57372;
},
{
glyphname = uniE01D;
layers = (
{
layerId = m01;
shapes = (
{
closed = 1;
nodes = (
(179,800,o),
(0,621,o),
(0,400,cs),
(0,0,l),
(200,0,l),
(200,400,ls),
(200,510,o),
(290,600,o),
(400,600,cs),
(510,600,o),
(600,510,o),
(600,400,cs),
(600,0,l),
(800,0,l),
(800,400,ls),
(800,621,o),
(621,800,o),
(400,800,cs)
);
}
);
width = 800;
}
);
note = uniE01D;
unicode = 57373;
},
{
glyphname = uniF5BA;
layers = (
{
layerId = m01;
shapes = (
{
closed = 1;
nodes = (
(200,0,l),
(200,55,o),
(245,100,o),
(300,100,cs),
(355,100,o),
(400,55,o),
(400,0,c),
(600,0,l),
(600,166,o),
(466,300,o),
(300,300,cs),
(134,300,o),
(1,166,o),
(0,0,c)
);
}
);
width = 800;
}
);
note = uniF5BA;
unicode = 62906;
},
{
glyphname = uniF5BB;
layers = (
{
layerId = m01;
shapes = (
{
closed = 1;
nodes = (
(134,500,o),
(1,366,o),
(0,200,cs),
(0,0,l),
(200,0,l),
(200,200,ls),
(200,255,o),
(245,300,o),
(300,300,cs),
(355,300,o),
(400,255,o),
(400,200,cs),
(400,0,l),
(600,0,l),
(600,200,ls),
(600,366,o),
(466,500,o),
(300,500,cs)
);
}
);
width = 800;
}
);
note = uniF5BB;
unicode = 62907;
},
{
glyphname = uniF5BC;
layers = (
{
layerId = m01;
shapes = (
{
closed = 1;
nodes = (
(134,700,o),
(1,566,o),
(0,400,cs),
(0,0,l),
(200,0,l),
(200,400,ls),
(200,455,o),
(245,500,o),
(300,500,cs),
(355,500,o),
(400,455,o),
(400,400,cs),
(400,0,l),
(600,0,l),
(600,400,ls),
(600,566,o),
(466,700,o),
(300,700,cs)
);
}
);
width = 800;
}
);
note = uniF5BC;
unicode = 62908;
},
{
glyphname = uniE166;
layers = (
{
layerId = m01;
shapes = (
{
closed = 1;
nodes = (
(200,0,l),
(200,221,o),
(290,400,o),
(400,400,cs),
(510,400,o),
(600,221,o),
(600,0,c),
(800,0,l),
(800,331,o),
(621,600,o),
(400,600,cs),
(179,600,o),
(0,331,o),
(0,0,c)
);
}
);
width = 800;
}
);
note = uniE166;
unicode = 57702;
},
{
glyphname = uniE165;
layers = (
{
layerId = m01;
shapes = (
{
closed = 1;
nodes = (
(200,0,l),
(200,331,o),
(290,600,o),
(400,600,cs),
(510,600,o),
(600,331,o),
(600,0,c),
(800,0,l),
(800,442,o),
(621,800,o),
(400,800,cs),
(179,800,o),
(0,442,o),
(0,0,c)
);
}
);
width = 800;
}
);
note = uniE165;
unicode = 57701;
},
{
glyphname = uniE157;
layers = (
{
layerId = m01;
shapes = (
{
closed = 1;
nodes = (
(200,0,l),
(200,221,o),
(290,400,o),
(400,400,cs),
(510,400,o),
(600,221,o),
(600,0,c),
(800,0,l),
(800,442,o),
(621,800,o),
(400,800,cs),
(179,800,o),
(0,442,o),
(0,0,c)
);
}
);
width = 800;
}
);
note = uniE157;
unicode = 57687;
},
{
glyphname = uniE158;
layers = (
{
layerId = m01;
shapes = (
{
closed = 1;
nodes = (
(200,0,l),
(200,110,o),
(290,200,o),
(400,200,cs),
(510,200,o),
(600,110,o),
(600,0,c),
(800,0,l),
(800,442,o),
(621,800,o),
(400,800,cs),
(179,800,o),
(0,442,o),
(0,0,c)
);
}
);
width = 800;
}
);
note = uniE158;
unicode = 57688;
},
{
glyphname = uniE167;
layers = (
{
layerId = m01;
shapes = (
{
closed = 1;
nodes = (
(200,0,l),
(200,110,o),
(290,200,o),
(400,200,cs),
(510,200,o),
(600,110,o),
(600,0,c),
(800,0,l),
(800,331,o),
(621,600,o),
(400,600,cs),
(179,600,o),
(0,331,o),
(0,0,c)
);
}
);
width = 800;
}
);
note = uniE167;
unicode = 57703;
},
{
glyphname = uniF5B8;
layers = (
{
layerId = m01;
shapes = (
{
closed = 1;
nodes = (
(600,621,o),
(421,800,o),
(200,800,cs),
(0,800,l),
(0,600,l),
(200,600,ls),
(310,600,o),
(400,510,o),
(400,400,cs),
(400,179,o),
(579,0,o),
(800,0,c),
(800,200,l),
(690,200,o),
(600,290,o),
(600,400,cs)
);
}
);
width = 800;
}
);
note = uniF5B8;
unicode = 62904;
},
{
glyphname = uniF5B9;
layers = (
{
layerId = m01;
shapes = (
{
closed = 1;
nodes = (
(600,566,o),
(466,700,o),
(300,700,cs),
(134,700,o),
(1,566,o),
(0,400,cs),
(0,0,l),
(200,0,l),
(200,400,ls),
(200,455,o),
(245,500,o),
(300,500,cs),
(355,500,o),
(400,455,o),
(400,400,cs),
(400,179,o),
(579,0,o),
(800,0,c),
(800,200,l),
(690,200,o),
(600,290,o),
(600,400,cs)
);
}
);
width = 800;
}
);
note = uniF5B9;
unicode = 62905;
},
{
glyphname = uniE39A;
layers = (
{
layerId = m01;
shapes = (
{
closed = 1;
nodes = (
(0,800,l),
(0,400,ls),
(0,179,o),
(179,0,o),
(400,0,cs),
(800,0,l),
(800,400,ls),
(800,621,o),
(621,800,o),
(400,800,cs)
);
},
{
closed = 1;
nodes = (
(400,200,ls),
(290,200,o),
(200,290,o),
(200,400,cs),
(200,600,l),
(400,600,ls),
(510,600,o),
(600,510,o),
(600,400,cs),
(600,200,l)
);
}
);
width = 800;
}
);
note = uniE39A;
unicode = 58266;
},
{
glyphname = uniE009;
layers = (
{
layerId = m01;
shapes = (
{
closed = 1;
nodes = (
(400,0,ls),
(800,0,o),
(600,600,o),
(800,600,c),
(800,800,l),
(400,800,ls),
(0,800,o),
(200,200,o),
(0,200,c),
(0,0,l)
);
}
);
width = 800;
}
);
note = uniE009;
unicode = 57353;
},
{
glyphname = uniE00A;
layers = (
{
layerId = m01;
shapes = (
{
closed = 1;
nodes = (
(400,0,ls),
(700,0,o),
(500,600,o),
(800,600,c),
(800,800,l),
(400,800,ls),
(100,800,o),
(300,200,o),
(0,200,c),
(0,0,l)
);
}
);
width = 800;
}
);
note = uniE00A;
unicode = 57354;
},
{
glyphname = uniE602;
layers = (
{
layerId = m01;
shapes = (
{
closed = 1;
nodes = (
(600,0,l),
(600,350,o),
(331,600,o),
(0,600,c),
(0,200,l),
(110,200,o),
(200,110,o),
(200,0,c)
);
}
);
width = 800;
}
);
note = uniE602;
unicode = 58882;
},
{
glyphname = uniE600;
layers = (
{
layerId = m01;
shapes = (
{
closed = 1;
nodes = (
(800,0,l),
(800,450,o),
(450,800,o),
(0,800,c),
(0,400,l),
(50,400,ls),
(250,400,o),
(400,250,o),
(400,50,cs),
(400,0,l)
);
}
);
width = 800;
}
);
note = uniE600;
unicode = 58880;
},
{
glyphname = uniE601;
layers = (
{
layerId = m01;
shapes = (
{
closed = 1;
nodes = (
(800,0,l),
(800,450,o),
(450,800,o),
(0,800,c),
(0,200,l),
(100,200,o),
(200,100,o),
(200,0,c)
);
}
);
width = 800;
}
);
note = uniE601;
unicode = 58881;
},
{
glyphname = uniE701;
layers = (
{
layerId = m01;
shapes = (
{
closed = 1;
nodes = (
(400,0,l),
(400,233,o),
(233,400,o),
(0,400,c),
(0,200,l),
(50,200,o),
(100,150,o),
(100,100,cs),
(100,50,o),
(50,0,o),
(0,0,cs)
);
}
);
width = 800;
}
);
note = uniE701;
unicode = 59137;
},
{
glyphname = uniE700;
layers = (
{
layerId = m01;
shapes = (
{
closed = 1;
nodes = (
(600,0,l),
(600,350,o),
(350,600,o),
(0,600,c),
(0,200,l),
(50,200,o),
(100,150,o),
(100,100,cs),
(100,50,o),
(50,0,o),
(0,0,cs)
);
}
);
width = 800;
}
);
note = uniE700;
unicode = 59136;
},
{
glyphname = uniE60F;
layers = (
{
layerId = m01;
shapes = (
{
closed = 1;
nodes = (
(600,0,l),
(600,332,o),
(332,600,o),
(0,600,c),
(0,400,l),
(110,400,o),
(200,310,o),
(200,200,cs),
(200,90,o),
(110,0,o),
(0,0,cs)
);
}
);
width = 800;
}
);
note = uniE60F;
unicode = 58895;
},
{
glyphname = uniE60A;
layers = (
{
layerId = m01;
shapes = (
{
closed = 1;
nodes = (
(800,0,l),
(800,450,o),
(450,800,o),
(0,800,c),
(0,400,l),
(100,400,o),
(200,300,o),
(200,200,cs),
(200,100,o),
(100,0,o),
(0,0,cs)
);
}
);
width = 800;
}
);
note = uniE60A;
unicode = 58890;
},
{
glyphname = uniE609;
layers = (
{
layerId = m01;
shapes = (
{
closed = 1;
nodes = (
(800,0,l),
(800,450,o),
(450,800,o),
(0,800,c),
(0,600,l),
(150,600,o),
(300,450,o),
(300,300,cs),
(300,150,o),
(150,0,o),
(0,0,cs)
);
}
);
width = 800;
}
);
note = uniE609;
unicode = 58889;
},
{
glyphname = uniF578;
layers = (
{
layerId = m01;
shapes = (
{
closed = 1;
nodes = (
(0,600,l),
(0,400,l),
(400,400,ls),
(450,400,o),
(500,350,o),
(500,300,cs),
(500,250,o),
(450,200,o),
(400,200,cs),
(0,200,l),
(0,0,l),
(800,0,l),
(800,200,ls),
(800,433,o),
(633,600,o),
(400,600,cs)
);
}
);
width = 800;
}
);
note = uniF578;
unicode = 62840;
},
{
glyphname = uniF577;
layers = (
{
layerId = m01;
shapes = (
{
closed = 1;
nodes = (
(0,800,l),
(0,400,l),
(200,400,ls),
(250,400,o),
(300,350,o),
(300,300,cs),
(300,250,o),
(250,200,o),
(200,200,cs),
(0,200,l),
(0,0,l),
(800,0,l),
(800,200,ls),
(800,550,o),
(550,800,o),
(200,800,cs)
);
}
);
width = 800;
}
);
note = uniF577;
unicode = 62839;
},
{
glyphname = uniF579;
layers = (
{
layerId = m01;
shapes = (
{
closed = 1;
nodes = (
(0,800,l),
(0,600,l),
(400,600,ls),
(450,600,o),
(500,550,o),
(500,500,cs),
(500,450,o),
(450,400,o),
(400,400,cs),
(0,400,l),
(0,0,l),
(800,0,l),
(800,400,ls),
(800,633,o),
(633,800,o),
(400,800,cs)
);
}
);
width = 800;
}
);
note = uniF579;
unicode = 62841;
},
{
glyphname = uniF576;
layers = (
{
layerId = m01;
shapes = (
{
closed = 1;
nodes = (
(0,800,l),
(0,600,l),
(200,600,ls),
(310,600,o),
(400,510,o),
(400,400,cs),
(400,290,o),
(310,200,o),
(200,200,cs),
(0,200,l),
(0,0,l),
(800,0,l),
(800,200,ls),
(800,532,o),
(532,800,o),
(200,800,cs)
);
}
);
width = 800;
}
);
note = uniF576;
unicode = 62838;
},
{
glyphname = uniE603;
layers = (
{
layerId = m01;
shapes = (
{
closed = 1;
nodes = (
(600,0,l),
(600,400,ls),
(600,600,o),
(400,800,o),
(200,800,cs),
(0,800,l),
(0,600,l),
(100,600,o),
(200,500,o),
(200,400,cs),
(200,0,l)
);
}
);
width = 800;
}
);
note = uniE603;
unicode = 58883;
},
{
glyphname = uniE60B;
layers = (
{
layerId = m01;
shapes = (
{
closed = 1;
nodes = (
(800,0,l),
(800,400,ls),
(800,600,o),
(600,800,o),
(400,800,cs),
(0,800,l),
(0,600,l),
(200,600,ls),
(300,600,o),
(400,500,o),
(400,400,cs),
(400,0,l)
);
}
);
width = 800;
}
);
note = uniE60B;
unicode = 58891;
},
{
glyphname = uniE60C;
layers = (
{
layerId = m01;
shapes = (
{
closed = 1;
nodes = (
(800,0,l),
(800,200,ls),
(800,400,o),
(600,600,o),
(400,600,cs),
(0,600,l),
(0,400,l),
(200,400,ls),
(300,400,o),
(400,300,o),
(400,200,cs),
(400,0,l)
);
}
);
width = 800;
}
);
note = uniE60C;
unicode = 58892;
},
{
glyphname = uniE60E;
layers = (
{
layerId = m01;
shapes = (
{
closed = 1;
nodes = (
(800,0,l),
(800,200,o),
(600,400,o),
(400,400,cs),
(0,400,l),
(0,200,l),
(200,200,ls),
(300,200,o),
(400,100,o),
(400,0,c)
);
}
);
width = 800;
}
);
note = uniE60E;
unicode = 58894;
},
{
glyphname = uniF5BE;
layers = (
{
layerId = m01;
shapes = (
{
closed = 1;
nodes = (
(134,700,o),
(1,566,o),
(0,400,cs),
(1,234,o),
(134,100,o),
(300,100,cs),
(466,100,o),
(600,234,o),
(600,400,cs),
(600,566,o),
(466,700,o),
(300,700,cs)
);
},
{
closed = 1;
nodes = (
(245,300,o),
(200,345,o),
(200,400,cs),
(200,455,o),
(245,500,o),
(300,500,cs),
(355,500,o),
(400,455,o),
(400,400,cs),
(400,345,o),
(355,300,o),
(300,300,cs)
);
}
);
width = 800;
}
);
note = uniF5BE;
unicode = 62910;
},
{
glyphname = uniE33A;
layers = (
{
layerId = m01;
shapes = (
{
closed = 1;
nodes = (
(179,800,o),
(0,621,o),
(0,400,cs),
(0,179,o),
(179,0,o),
(400,0,cs),
(621,0,o),
(800,179,o),
(800,400,cs),
(800,621,o),
(621,800,o),
(400,800,cs)
);
},
{
closed = 1;
nodes = (
(290,200,o),
(200,290,o),
(200,400,cs),
(200,510,o),
(290,600,o),
(400,600,cs),
(510,600,o),
(600,510,o),
(600,400,cs),
(600,290,o),
(510,200,o),
(400,200,cs)
);
}
);
width = 800;
}
);
note = uniE33A;
unicode = 58170;
},
{
glyphname = uniE0E3;
layers = (
{
layerId = m01;
shapes = (
{
closed = 1;
nodes = (
(700,0,o),
(800,100,o),
(800,400,cs),
(800,700,o),
(700,800,o),
(400,800,cs),
(100,800,o),
(0,700,o),
(0,400,cs),
(0,100,o),
(100,0,o),
(400,0,cs)
);
}
);
width = 800;
}
);
note = uniE0E3;
unicode = 57571;
},
{
glyphname = uniE095;
layers = (
{
layerId = m01;
shapes = (
{
closed = 1;
nodes = (
(621,0,o),
(800,179,o),
(800,400,cs),
(800,621,o),
(621,800,o),
(400,800,cs),
(179,800,o),
(0,621,o),
(0,400,cs),
(0,179,o),
(179,0,o),
(400,0,cs)
);
}
);
width = 800;
}
);
note = uniE095;
unicode = 57493;
},
{
glyphname = uniE096;
layers = (
{
layerId = m01;
shapes = (
{
closed = 1;
nodes = (
(510,200,o),
(600,290,o),
(600,400,cs),
(600,510,o),
(510,600,o),
(400,600,cs),
(290,600,o),
(200,510,o),
(200,400,cs),
(200,290,o),
(290,200,o),
(400,200,cs)
);
}
);
width = 800;
}
);
note = uniE096;
unicode = 57494;
},
{
glyphname = uniE097;
layers = (
{
layerId = m01;
shapes = (
{
closed = 1;
nodes = (
(310,0,o),
(400,90,o),
(400,200,cs),
(400,310,o),
(310,400,o),
(200,400,cs),
(90,400,o),
(0,310,o),
(0,200,cs),
(0,90,o),
(90,0,o),
(200,0,cs)
);
}
);
width = 800;
}
);
note = uniE097;
unicode = 57495;
},
{
glyphname = uniE22A;
layers = (
{
layerId = m01;
shapes = (
{
closed = 1;
nodes = (
(310,0,o),
(400,90,o),
(400,200,cs),
(400,310,o),
(310,400,o),
(200,400,cs),
(90,400,o),
(0,310,o),
(0,200,cs),
(0,90,o),
(90,0,o),
(200,0,cs)
);
},
{
closed = 1;
nodes = (
(710,0,o),
(800,90,o),
(800,200,cs),
(800,310,o),
(710,400,o),
(600,400,cs),
(490,400,o),
(400,310,o),
(400,200,cs),
(400,90,o),
(490,0,o),
(600,0,cs)
);
}
);
width = 800;
}
);
note = uniE22A;
unicode = 57898;
},
{
glyphname = uniE298;
layers = (
{
layerId = m01;
shapes = (
{
closed = 1;
nodes = (
(155,0,o),
(200,45,o),
(200,100,cs),
(200,155,o),
(155,200,o),
(100,200,cs),
(45,200,o),
(0,155,o),
(0,100,cs),
(0,45,o),
(45,0,o),
(100,0,cs)
);
}
);
width = 800;
}
);
note = uniE298;
unicode = 58008;
},
{
glyphname = uniF572;
layers = (
{
layerId = m01;
shapes = (
{
closed = 1;
nodes = (
(621,0,o),
(800,179,o),
(800,400,cs),
(800,800,l),
(400,800,ls),
(179,800,o),
(0,621,o),
(0,400,cs),
(0,179,o),
(179,0,o),
(400,0,cs)
);
}
);
width = 800;
}
);
note = uniF572;
unicode = 62834;
},
{
glyphname = uniF573;
layers = (
{
layerId = m01;
shapes = (
{
closed = 1;
nodes = (
(400,0,ls),
(621,0,o),
(800,179,o),
(800,400,cs),
(800,800,l),
(400,800,ls),
(179,800,o),
(0,621,o),
(0,400,cs),
(0,0,l)
);
}
);
width = 800;
}
);
note = uniF573;
unicode = 62835;
},
{
glyphname = uniE0DA;
layers = (
{
layerId = m01;
shapes = (
{
closed = 1;
nodes = (
(600,0,o),
(800,200,o),
(800,800,c),
(200,800,o),
(0,600,o),
(0,0,c)
);
}
);
width = 800;
}
);
note = uniE0DA;
unicode = 57562;
},
{
glyphname = uniE244;
layers = (
{
layerId = m01;
shapes = (
{
closed = 1;
nodes = (
(400,0,o),
(800,400,o),
(800,800,c),
(400,800,o),
(0,400,o),
(0,0,c)
);
}
);
width = 800;
}
);
note = uniE244;
unicode = 57924;
},
{
glyphname = uniE243;
layers = (
{
layerId = m01;
shapes = (
{
closed = 1;
nodes = (
(200,0,o),
(800,600,o),
(800,800,c),
(600,800,o),
(0,200,o),
(0,0,c)
);
}
);
width = 800;
}
);
note = uniE243;
unicode = 57923;
},
{
glyphname = uniE0E4;
layers = (
{
layerId = m01;
shapes = (
{
closed = 1;
nodes = (
(700,200,o),
(800,250,o),
(800,400,cs),
(800,550,o),
(700,600,o),
(400,600,cs),
(100,600,o),
(0,550,o),
(0,400,cs),
(0,250,o),
(100,200,o),
(400,200,cs)
);
}
);
width = 800;
}
);
note = uniE0E4;
unicode = 57572;
},
{
glyphname = uniE440;
layers = (
{
layerId = m01;
shapes = (
{
closed = 1;
nodes = (
(250,200,ls),
(200,0,o),
(400,0,o),
(450,200,cs),
(550,600,ls),
(600,800,o),
(400,800,o),
(350,600,cs)
);
}
);
width = 800;
}
);
note = uniE440;
unicode = 58432;
},
{
glyphname = uniE441;
layers = (
{
layerId = m01;
shapes = (
{
closed = 1;
nodes = (
(450,200,ls),
(400,0,o),
(600,0,o),
(650,200,cs),
(750,600,ls),
(800,800,o),
(600,800,o),
(550,600,cs)
);
}
);
width = 800;
}
);
note = uniE441;
unicode = 58433;
},
{
glyphname = uniE442;
layers = (
{
layerId = m01;
shapes = (
{
closed = 1;
nodes = (
(250,200,ls),
(200,0,o),
(600,0,o),
(650,200,cs),
(750,600,ls),
(800,800,o),
(400,800,o),
(350,600,cs)
);
}
);
width = 800;
}
);
note = uniE442;
unicode = 58434;
},
{
glyphname = uniE443;
layers = (
{
layerId = m01;
shapes = (
{
closed = 1;
nodes = (
(50,200,ls),
(0,0,o),
(600,0,o),
(650,200,cs),
(750,600,ls),
(800,800,o),
(200,800,o),
(150,600,cs)
);
}
);
width = 800;
}
);
note = uniE443;
unicode = 58435;
},
{
glyphname = uniE444;
layers = (
{
layerId = m01;
shapes = (
{
closed = 1;
nodes = (
(100,200,ls),
(0,0,o),
(200,0,o),
(300,200,cs),
(500,600,ls),
(600,800,o),
(400,800,o),
(300,600,cs)
);
}
);
width = 800;
}
);
note = uniE444;
unicode = 58436;
},
{
glyphname = uniE445;
layers = (
{
layerId = m01;
shapes = (
{
closed = 1;
nodes = (
(100,200,ls),
(0,0,o),
(400,0,o),
(500,200,cs),
(700,600,ls),
(800,800,o),
(400,800,o),
(300,600,cs)
);
}
);
width = 800;
}
);
note = uniE445;
unicode = 58437;
},
{
glyphname = uniE39C;
layers = (
{
layerId = m01;
shapes = (
{
closed = 1;
nodes = (
(400,0,ls),
(250,0,o),
(200,200,o),
(200,800,c),
(200,200,o),
(150,0,o),
(0,0,cs)
);
},
{
closed = 1;
nodes = (
(800,0,ls),
(650,0,o),
(600,200,o),
(600,800,c),
(600,200,o),
(550,0,o),
(400,0,cs)
);
}
);
width = 800;
}
);
note = uniE39C;
unicode = 58268;
},
{
glyphname = uniE39D;
layers = (
{
layerId = m01;
shapes = (
{
closed = 1;
nodes = (
(600,0,ls),
(450,0,o),
(400,200,o),
(400,800,c),
(400,200,o),
(350,0,o),
(200,0,cs)
);
}
);
width = 800;
}
);
note = uniE39D;
unicode = 58269;
},
{
glyphname = uniE390;
layers = (
{
layerId = m01;
shapes = (
{
closed = 1;
nodes = (
(400,500,o),
(300,400,o),
(0,400,c),
(300,400,o),
(400,300,o),
(400,0,c),
(400,300,o),
(500,400,o),
(800,400,c),
(500,400,o),
(400,500,o),
(400,800,c)
);
}
);
width = 800;
}
);
note = uniE390;
unicode = 58256;
},
{
glyphname = uniE391;
layers = (
{
layerId = m01;
shapes = (
{
closed = 1;
nodes = (
(400,350,o),
(300,200,o),
(0,200,c),
(300,200,o),
(400,150,o),
(400,0,c),
(400,150,o),
(500,200,o),
(800,200,c),
(500,200,o),
(400,350,o),
(400,800,c)
);
}
);
width = 800;
}
);
note = uniE391;
unicode = 58257;
},
{
glyphname = uniE0C6;
layers = (
{
layerId = m01;
shapes = (
{
closed = 1;
nodes = (
(800,0,ls),
(500,0,o),
(400,50,o),
(400,200,c),
(400,50,o),
(300,0,o),
(0,0,cs)
);
}
);
width = 800;
}
);
note = uniE0C6;
unicode = 57542;
},
{
glyphname = uniE0C7;
layers = (
{
layerId = m01;
shapes = (
{
closed = 1;
nodes = (
(800,0,ls),
(500,0,o),
(400,100,o),
(400,400,c),
(400,100,o),
(300,0,o),
(0,0,cs)
);
}
);
width = 800;
}
);
note = uniE0C7;
unicode = 57543;
},
{
glyphname = uniE0C8;
layers = (
{
layerId = m01;
shapes = (
{
closed = 1;
nodes = (
(800,0,ls),
(500,0,o),
(400,150,o),
(400,600,c),
(400,150,o),
(300,0,o),
(0,0,cs)
);
}
);
width = 800;
}
);
note = uniE0C8;
unicode = 57544;
},
{
glyphname = uniE0C9;
layers = (
{
layerId = m01;
shapes = (
{
closed = 1;
nodes = (
(800,0,ls),
(500,0,o),
(400,200,o),
(400,800,c),
(400,200,o),
(300,0,o),
(0,0,cs)
);
}
);
width = 800;
}
);
note = uniE0C9;
unicode = 57545;
},
{
glyphname = uniE621;
layers = (
{
layerId = m01;
shapes = (
{
closed = 1;
nodes = (
(400,0,l),
(400,110,o),
(310,200,o),
(200,200,cs),
(90,200,o),
(0,110,o),
(0,0,c)
);
},
{
closed = 1;
nodes = (
(800,0,l),
(800,110,o),
(710,200,o),
(600,200,cs),
(490,200,o),
(400,110,o),
(400,0,c)
);
}
);
width = 800;
}
);
note = uniE621;
unicode = 58913;
},
{
glyphname = uniE622;
layers = (
{
layerId = m01;
shapes = (
{
closed = 1;
nodes = (
(800,0,l),
(800,200,ls),
(800,300,o),
(700,400,o),
(600,400,cs),
(500,400,o),
(400,300,o),
(400,200,c),
(400,300,o),
(300,400,o),
(200,400,cs),
(100,400,o),
(0,300,o),
(0,200,cs),
(0,0,l)
);
}
);
width = 800;
}
);
note = uniE622;
unicode = 58914;
},
{
glyphname = uniE623;
layers = (
{
layerId = m01;
shapes = (
{
closed = 1;
nodes = (
(800,0,l),
(800,400,ls),
(800,500,o),
(700,600,o),
(600,600,cs),
(500,600,o),
(400,500,o),
(400,400,c),
(400,500,o),
(300,600,o),
(200,600,cs),
(100,600,o),
(0,500,o),
(0,400,cs),
(0,0,l)
);
}
);
width = 800;
}
);
note = uniE623;
unicode = 58915;
},
{
glyphname = uniE624;
layers = (
{
layerId = m01;
shapes = (
{
closed = 1;
nodes = (
(800,0,l),
(800,600,ls),
(800,700,o),
(700,800,o),
(600,800,cs),
(500,800,o),
(400,700,o),
(400,600,c),
(400,700,o),
(300,800,o),
(200,800,cs),
(100,800,o),
(0,700,o),
(0,600,cs),
(0,0,l)
);
}
);
width = 800;
}
);
note = uniE624;
unicode = 58916;
},
{
glyphname = uniF59B;
layers = (
{
layerId = m01;
shapes = (
{
closed = 1;
nodes = (
(400,0,l),
(400,110,o),
(310,200,o),
(200,200,cs),
(90,200,o),
(0,110,o),
(0,0,c)
);
}
);
width = 800;
}
);
note = uniF59B;
unicode = 62875;
},
{
glyphname = uniF59C;
layers = (
{
layerId = m01;
shapes = (
{
closed = 1;
nodes = (
(90,400,o),
(0,310,o),
(0,200,cs),
(0,0,l),
(400,0,l),
(400,200,ls),
(400,310,o),
(310,400,o),
(200,400,cs)
);
}
);
width = 800;
}
);
note = uniF59C;
unicode = 62876;
},
{
glyphname = uniF59D;
layers = (
{
layerId = m01;
shapes = (
{
closed = 1;
nodes = (
(90,600,o),
(0,510,o),
(0,400,cs),
(0,0,l),
(400,0,l),
(400,400,ls),
(400,510,o),
(310,600,o),
(200,600,cs)
);
}
);
width = 800;
}
);
note = uniF59D;
unicode = 62877;
},
{
glyphname = uniF59E;
layers = (
{
layerId = m01;
shapes = (
{
closed = 1;
nodes = (
(90,800,o),
(0,710,o),
(0,600,cs),
(0,0,l),
(400,0,l),
(400,600,ls),
(400,710,o),
(310,800,o),
(200,800,cs)
);
}
);
width = 800;
}
);
note = uniF59E;
unicode = 62878;
},
{
glyphname = uniF597;
layers = (
{
layerId = m01;
shapes = (
{
closed = 1;
nodes = (
(200,0,l),
(200,55,o),
(155,100,o),
(100,100,cs),
(45,100,o),
(0,55,o),
(0,0,c)
);
}
);
width = 800;
}
);
note = uniF597;
unicode = 62871;
},
{
glyphname = uniF598;
layers = (
{
layerId = m01;
shapes = (
{
closed = 1;
nodes = (
(45,300,o),
(0,255,o),
(0,200,cs),
(0,0,l),
(200,0,l),
(200,200,ls),
(200,255,o),
(155,300,o),
(100,300,cs)
);
}
);
width = 800;
}
);
note = uniF598;
unicode = 62872;
},
{
glyphname = uniF599;
layers = (
{
layerId = m01;
shapes = (
{
closed = 1;
nodes = (
(45,500,o),
(0,455,o),
(0,400,cs),
(0,0,l),
(200,0,l),
(200,400,ls),
(200,455,o),
(155,500,o),
(100,500,cs)
);
}
);
width = 800;
}
);
note = uniF599;
unicode = 62873;
},
{
glyphname = uniF59A;
layers = (
{
layerId = m01;
shapes = (
{
closed = 1;
nodes = (
(45,700,o),
(0,655,o),
(0,600,cs),
(0,0,l),
(200,0,l),
(200,600,ls),
(200,655,o),
(155,700,o),
(100,700,cs)
);
}
);
width = 800;
}
);
note = uniF59A;
unicode = 62874;
},
{
glyphname = uniE3F0;
layers = (
{
layerId = m01;
shapes = (
{
closed = 1;
nodes = (
(490,800,o),
(400,710,o),
(400,600,cs),
(400,400,ls),
(400,100,o),
(300,0,o),
(0,0,cs),
(800,0,l),
(800,600,ls),
(800,710,o),
(710,800,o),
(600,800,cs)
);
}
);
width = 800;
}
);
note = uniE3F0;
unicode = 58352;
},
{
glyphname = uniE3F1;
layers = (
{
layerId = m01;
shapes = (
{
closed = 1;
nodes = (
(645,700,o),
(600,655,o),
(600,600,cs),
(600,200,o),
(400,0,o),
(0,0,cs),
(800,0,l),
(800,600,ls),
(800,655,o),
(755,700,o),
(700,700,cs)
);
}
);
width = 800;
}
);
note = uniE3F1;
unicode = 58353;
},
{
glyphname = uniE615;
layers = (
{
layerId = m01;
shapes = (
{
closed = 1;
nodes = (
(200,0,l),
(200,55,o),
(155,100,o),
(100,100,cs),
(45,100,o),
(0,55,o),
(0,0,c)
);
},
{
closed = 1;
nodes = (
(400,0,l),
(400,55,o),
(355,100,o),
(300,100,cs),
(245,100,o),
(200,55,o),
(200,0,c)
);
},
{
closed = 1;
nodes = (
(600,0,l),
(600,55,o),
(555,100,o),
(500,100,cs),
(445,100,o),
(400,55,o),
(400,0,c)
);
},
{
closed = 1;
nodes = (
(800,0,l),
(800,55,o),
(755,100,o),
(700,100,cs),
(645,100,o),
(600,55,o),
(600,0,c)
);
}
);
width = 800;
}
);
note = uniE615;
unicode = 58901;
},
{
glyphname = uniE616;
layers = (
{
layerId = m01;
shapes = (
{
closed = 1;
nodes = (
(800,0,l),
(800,200,ls),
(800,250,o),
(750,300,o),
(700,300,cs),
(650,300,o),
(600,250,o),
(600,200,c),
(600,250,o),
(550,300,o),
(500,300,cs),
(450,300,o),
(400,250,o),
(400,200,c),
(400,250,o),
(350,300,o),
(300,300,cs),
(250,300,o),
(200,250,o),
(200,200,c),
(200,250,o),
(150,300,o),
(100,300,cs),
(50,300,o),
(0,250,o),
(0,200,cs),
(0,0,l)
);
}
);
width = 800;
}
);
note = uniE616;
unicode = 58902;
},
{
glyphname = uniE617;
layers = (
{
layerId = m01;
shapes = (
{
closed = 1;
nodes = (
(800,0,l),
(800,400,ls),
(800,450,o),
(750,500,o),
(700,500,cs),
(650,500,o),
(600,450,o),
(600,400,c),
(600,450,o),
(550,500,o),
(500,500,cs),
(450,500,o),
(400,450,o),
(400,400,c),
(400,450,o),
(350,500,o),
(300,500,cs),
(250,500,o),
(200,450,o),
(200,400,c),
(200,450,o),
(150,500,o),
(100,500,cs),
(50,500,o),
(0,450,o),
(0,400,cs),
(0,0,l)
);
}
);
width = 800;
}
);
note = uniE617;
unicode = 58903;
},
{
glyphname = uniE618;
layers = (
{
layerId = m01;
shapes = (
{
closed = 1;
nodes = (
(800,0,l),
(800,600,ls),
(800,650,o),
(750,700,o),
(700,700,cs),
(650,700,o),
(600,650,o),
(600,600,c),
(600,650,o),
(550,700,o),
(500,700,cs),
(450,700,o),
(400,650,o),
(400,600,c),
(400,650,o),
(350,700,o),
(300,700,cs),
(250,700,o),
(200,650,o),
(200,600,c),
(200,650,o),
(150,700,o),
(100,700,cs),
(50,700,o),
(0,650,o),
(0,600,cs),
(0,0,l)
);
}
);
width = 800;
}
);
note = uniE618;
unicode = 58904;
},
{
glyphname = uniE619;
layers = (
{
layerId = m01;
shapes = (
{
closed = 1;
nodes = (
(600,0,l),
(600,200,ls),
(600,250,o),
(550,300,o),
(500,300,cs),
(450,300,o),
(400,250,o),
(400,200,cs),
(400,400,ls),
(400,450,o),
(350,500,o),
(300,500,cs),
(250,500,o),
(200,450,o),
(200,400,cs),
(200,600,ls),
(200,650,o),
(150,700,o),
(100,700,cs),
(50,700,o),
(0,650,o),
(0,600,cs),
(0,0,l)
);
},
{
closed = 1;
nodes = (
(800,0,l),
(800,50,o),
(750,100,o),
(700,100,cs),
(650,100,o),
(600,50,o),
(600,0,c)
);
}
);
width = 800;
}
);
note = uniE619;
unicode = 58905;
},
{
glyphname = uniE62A;
layers = (
{
layerId = m01;
shapes = (
{
closed = 1;
nodes = (
(800,0,l),
(800,400,l),
(600,600,o),
(600,200,o),
(400,400,cs),
(200,600,o),
(200,200,o),
(0,400,c),
(0,0,l)
);
}
);
width = 800;
}
);
note = uniE62A;
unicode = 58922;
},
{
glyphname = uniE629;
layers = (
{
layerId = m01;
shapes = (
{
closed = 1;
nodes = (
(800,0,l),
(800,600,l),
(600,800,o),
(600,400,o),
(400,600,cs),
(200,800,o),
(200,400,o),
(0,600,c),
(0,0,l)
);
}
);
width = 800;
}
);
note = uniE629;
unicode = 58921;
},
{
glyphname = uniE255;
layers = (
{
layerId = m01;
shapes = (
{
closed = 1;
nodes = (
(800,0,l),
(5,795,ls),
(798,2,o),
(798,0,o),
(5,0,cs)
);
}
);
width = 800;
}
);
note = uniE255;
unicode = 57941;
},
{
glyphname = uniE254;
layers = (
{
layerId = m01;
shapes = (
{
closed = 1;
nodes = (
(800,0,l),
(0,800,ls),
(600,200,o),
(600,0,o),
(0,0,cs)
);
}
);
width = 800;
}
);
note = uniE254;
unicode = 57940;
},
{
glyphname = uniE253;
layers = (
{
layerId = m01;
shapes = (
{
closed = 1;
nodes = (
(800,0,l),
(0,800,ls),
(400,400,o),
(400,0,o),
(0,0,cs)
);
}
);
width = 800;
}
);
note = uniE253;
unicode = 57939;
},
{
glyphname = uniE252;
layers = (
{
layerId = m01;
shapes = (
{
closed = 1;
nodes = (
(800,0,l),
(0,800,ls),
(200,600,o),
(200,0,o),
(0,0,cs)
);
}
);
width = 800;
}
);
note = uniE252;
unicode = 57938;
},
{
glyphname = uniE268;
layers = (
{
layerId = m01;
shapes = (
{
closed = 1;
nodes = (
(200,800,l),
(204,796,l)
);
},
{
closed = 1;
nodes = (
(204,796,l),
(800,200,o),
(798,200,o),
(0,200,c),
(0,0,l),
(800,0,l),
(800,200,l)
);
}
);
width = 800;
}
);
note = uniE268;
unicode = 57960;
},
{
glyphname = uniE269;
layers = (
{
layerId = m01;
shapes = (
{
closed = 1;
nodes = (
(800,0,l),
(800,200,l),
(200,800,ls),
(600,400,o),
(600,200,o),
(0,200,c),
(0,0,l)
);
}
);
width = 800;
}
);
note = uniE269;
unicode = 57961;
},
{
glyphname = uniE26A;
layers = (
{
layerId = m01;
shapes = (
{
closed = 1;
nodes = (
(800,0,l),
(800,200,l),
(200,800,ls),
(400,600,o),
(200,200,o),
(0,200,c),
(0,0,l)
);
}
);
width = 800;
}
);
note = uniE26A;
unicode = 57962;
},
{
glyphname = uniE264;
layers = (
{
layerId = m01;
shapes = (
{
closed = 1;
nodes = (
(0,800,l),
(5,795,ls),
(798,2,o),
(798,0,o),
(5,0,cs),
(800,0,l),
(800,200,l),
(200,800,l)
);
}
);
width = 800;
}
);
note = uniE264;
unicode = 57956;
},
{
glyphname = uniE265;
layers = (
{
layerId = m01;
shapes = (
{
closed = 1;
nodes = (
(0,800,l),
(600,200,o),
(600,0,o),
(0,0,cs),
(800,0,l),
(800,200,l),
(200,800,l)
);
}
);
width = 800;
}
);
note = uniE265;
unicode = 57957;
},
{
glyphname = uniE266;
layers = (
{
layerId = m01;
shapes = (
{
closed = 1;
nodes = (
(0,800,l),
(400,400,o),
(400,0,o),
(0,0,cs),
(800,0,l),
(800,200,l),
(200,800,l)
);
}
);
width = 800;
}
);
note = uniE266;
unicode = 57958;
},
{
glyphname = uniE267;
layers = (
{
layerId = m01;
shapes = (
{
closed = 1;
nodes = (
(0,800,l),
(200,600,o),
(200,0,o),
(0,0,cs),
(800,0,l),
(800,200,l),
(200,800,l)
);
}
);
width = 800;
}
);
note = uniE267;
unicode = 57959;
},
{
glyphname = uniE61C;
layers = (
{
layerId = m01;
shapes = (
{
closed = 1;
nodes = (
(800,0,l),
(800,200,l),
(200,800,l),
(0,800,l),
(600,200,o),
(600,200,o),
(0,200,c),
(0,0,l)
);
}
);
width = 800;
}
);
note = uniE61C;
unicode = 58908;
},
{
glyphname = uniE61D;
layers = (
{
layerId = m01;
shapes = (
{
closed = 1;
nodes = (
(800,0,l),
(800,200,l),
(200,800,l),
(0,800,l),
(400,400,o),
(400,200,o),
(0,200,c),
(0,0,l)
);
}
);
width = 800;
}
);
note = uniE61D;
unicode = 58909;
},
{
glyphname = uniE61E;
layers = (
{
layerId = m01;
shapes = (
{
closed = 1;
nodes = (
(800,0,l),
(800,400,l),
(400,800,l),
(0,800,l),
(400,500,o),
(400,200,o),
(0,200,c),
(0,0,l)
);
}
);
width = 800;
}
);
note = uniE61E;
unicode = 58910;
},
{
glyphname = uniE61F;
layers = (
{
layerId = m01;
shapes = (
{
closed = 1;
nodes = (
(800,0,l),
(800,200,l),
(200,800,l),
(0,800,l),
(200,600,o),
(200,200,o),
(0,200,c),
(0,0,l)
);
}
);
width = 800;
}
);
note = uniE61F;
unicode = 58911;
},
{
glyphname = uniE04E;
layers = (
{
layerId = m01;
shapes = (
{
closed = 1;
nodes = (
(401,400,o),
(600,399,o),
(600,0,c),
(800,0,l),
(800,399,o),
(401,400,o),
(400,400,c)
);
}
);
width = 800;
}
);
note = uniE04E;
unicode = 57422;
},
{
glyphname = uniE04F;
layers = (
{
layerId = m01;
shapes = (
{
closed = 1;
nodes = (
(401,600,o),
(600,599,o),
(600,0,c),
(800,0,l),
(800,599,o),
(401,600,o),
(400,600,c)
);
}
);
width = 800;
}
);
note = uniE04F;
unicode = 57423;
},
{
glyphname = uniE050;
layers = (
{
layerId = m01;
shapes = (
{
closed = 1;
nodes = (
(401,800,o),
(600,798,o),
(600,0,c),
(800,0,l),
(800,799,o),
(401,800,o),
(400,800,c)
);
}
);
width = 800;
}
);
note = uniE050;
unicode = 57424;
},
{
glyphname = uniE051;
layers = (
{
layerId = m01;
shapes = (
{
closed = 1;
nodes = (
(2,800,o),
(600,798,o),
(600,0,c),
(800,0,l),
(800,799,o),
(3,800,o),
(0,800,cs)
);
}
);
width = 800;
}
);
note = uniE051;
unicode = 57425;
},
{
glyphname = uniE054;
layers = (
{
layerId = m01;
shapes = (
{
closed = 1;
nodes = (
(2,600,o),
(600,599,o),
(600,0,c),
(800,0,l),
(800,599,o),
(3,600,o),
(0,600,cs)
);
}
);
width = 800;
}
);
note = uniE054;
unicode = 57428;
},
{
glyphname = uniE055;
layers = (
{
layerId = m01;
shapes = (
{
closed = 1;
nodes = (
(2,400,o),
(600,399,o),
(600,0,c),
(800,0,l),
(800,399,o),
(3,400,o),
(0,400,cs)
);
}
);
width = 800;
}
);
note = uniE055;
unicode = 57429;
},
{
glyphname = uniE05A;
layers = (
{
layerId = m01;
shapes = (
{
closed = 1;
nodes = (
(201,800,o),
(400,798,o),
(400,0,c),
(800,0,l),
(800,799,o),
(201,800,o),
(200,800,c)
);
}
);
width = 800;
}
);
note = uniE05A;
unicode = 57434;
},
{
glyphname = uniE057;
layers = (
{
layerId = m01;
shapes = (
{
closed = 1;
nodes = (
(2,800,o),
(400,798,o),
(400,0,c),
(800,0,l),
(800,799,o),
(2,800,o),
(0,800,c)
);
}
);
width = 800;
}
);
note = uniE057;
unicode = 57431;
},
{
glyphname = uniE058;
layers = (
{
layerId = m01;
shapes = (
{
closed = 1;
nodes = (
(1,800,o),
(200,798,o),
(200,0,c),
(800,0,l),
(800,800,o),
(200,800,o),
(0,800,cs)
);
}
);
width = 800;
}
);
note = uniE058;
unicode = 57432;
},
{
glyphname = uniF557;
layers = (
{
layerId = m01;
shapes = (
{
closed = 1;
nodes = (
(1,600,o),
(200,599,o),
(200,0,c),
(800,0,l),
(800,600,o),
(400,600,o),
(0,600,cs)
);
}
);
width = 800;
}
);
note = uniF557;
unicode = 62807;
},
{
glyphname = uniF558;
layers = (
{
layerId = m01;
shapes = (
{
closed = 1;
nodes = (
(1,400,o),
(200,399,o),
(200,0,c),
(800,0,l),
(800,400,o),
(600,400,o),
(0,400,cs)
);
}
);
width = 800;
}
);
note = uniF558;
unicode = 62808;
},
{
glyphname = uniF559;
layers = (
{
layerId = m01;
shapes = (
{
closed = 1;
nodes = (
(1,200,o),
(200,200,o),
(200,0,c),
(800,0,l),
(800,200,o),
(800,200,o),
(0,200,cs)
);
}
);
width = 800;
}
);
note = uniF559;
unicode = 62809;
},
{
glyphname = uniF55A;
layers = (
{
layerId = m01;
shapes = (
{
closed = 1;
nodes = (
(800,0,l),
(800,133,o),
(800,200,o),
(0,200,cs),
(398,200,o),
(400,150,o),
(400,0,c)
);
}
);
width = 800;
}
);
note = uniF55A;
unicode = 62810;
},
{
glyphname = uniF55B;
layers = (
{
layerId = m01;
shapes = (
{
closed = 1;
nodes = (
(800,0,l),
(800,300,o),
(800,400,o),
(0,400,cs),
(400,400,o),
(400,300,o),
(400,0,c)
);
}
);
width = 800;
}
);
note = uniF55B;
unicode = 62811;
},
{
glyphname = uniF55C;
layers = (
{
layerId = m01;
shapes = (
{
closed = 1;
nodes = (
(800,0,l),
(800,450,o),
(800,600,o),
(0,600,cs),
(400,600,o),
(400,450,o),
(400,0,c)
);
}
);
width = 800;
}
);
note = uniF55C;
unicode = 62812;
},
{
glyphname = uniF55D;
layers = (
{
layerId = m01;
shapes = (
{
closed = 1;
nodes = (
(800,0,l),
(800,600,o),
(800,800,o),
(0,800,cs),
(400,800,o),
(400,600,o),
(400,0,c)
);
}
);
width = 800;
}
);
note = uniF55D;
unicode = 62813;
},
{
glyphname = uniF55E;
layers = (
{
layerId = m01;
shapes = (
{
closed = 1;
nodes = (
(800,0,l),
(800,600,o),
(800,800,o),
(0,800,cs),
(600,800,o),
(600,600,o),
(600,0,c)
);
}
);
width = 800;
}
);
note = uniF55E;
unicode = 62814;
},
{
glyphname = uniF55F;
layers = (
{
layerId = m01;
shapes = (
{
closed = 1;
nodes = (
(800,0,l),
(800,450,o),
(800,600,o),
(0,600,cs),
(600,600,o),
(600,450,o),
(600,0,c)
);
}
);
width = 800;
}
);
note = uniF55F;
unicode = 62815;
},
{
glyphname = uniF560;
layers = (
{
layerId = m01;
shapes = (
{
closed = 1;
nodes = (
(800,0,l),
(800,300,o),
(800,400,o),
(0,400,cs),
(600,400,o),
(600,300,o),
(600,0,c)
);
}
);
width = 800;
}
);
note = uniF560;
unicode = 62816;
},
{
glyphname = uniF561;
layers = (
{
layerId = m01;
shapes = (
{
closed = 1;
nodes = (
(800,0,l),
(800,133,o),
(800,200,o),
(0,200,cs),
(600,200,o),
(600,133,o),
(600,0,c)
);
}
);
width = 800;
}
);
note = uniF561;
unicode = 62817;
},
{
glyphname = uniF562;
layers = (
{
layerId = m01;
shapes = (
{
closed = 1;
nodes = (
(800,0,l),
(600,800,o),
(400,800,o),
(0,600,c),
(400,800,o),
(450,600,o),
(600,0,c)
);
}
);
width = 800;
}
);
note = uniF562;
unicode = 62818;
},
{
glyphname = uniF563;
layers = (
{
layerId = m01;
shapes = (
{
closed = 1;
nodes = (
(800,0,l),
(600,800,o),
(400,800,o),
(0,800,c),
(400,800,o),
(450,600,o),
(600,0,c)
);
}
);
width = 800;
}
);
note = uniF563;
unicode = 62819;
},
{
glyphname = uniE169;
layers = (
{
layerId = m01;
shapes = (
{
closed = 1;
nodes = (
(800,798,l),
(800,798,o),
(800,799,o),
(800,800,cs)
);
},
{
closed = 1;
nodes = (
(799,399,o),
(599,200,o),
(0,200,c),
(0,0,l),
(795,0,ls),
(4,0,o),
(798,2,o),
(800,798,cs)
);
}
);
width = 800;
}
);
note = uniE169;
unicode = 57705;
},
{
glyphname = uniE15B;
layers = (
{
layerId = m01;
shapes = (
{
closed = 1;
nodes = (
(800,200,o),
(0,0,o),
(0,0,c),
(795,0,ls),
(3,0,o),
(800,2,o),
(800,800,cs)
);
}
);
width = 800;
}
);
note = uniE15B;
unicode = 57691;
},
{
glyphname = uniE154;
layers = (
{
layerId = m01;
shapes = (
{
closed = 1;
nodes = (
(0,331,o),
(134,600,o),
(300,600,cs),
(466,600,o),
(600,331,o),
(600,0,c),
(800,0,l),
(800,442,o),
(621,800,o),
(400,800,cs),
(179,800,o),
(0,442,o),
(0,0,cs)
);
}
);
width = 800;
}
);
note = uniE154;
unicode = 57684;
},
{
glyphname = uniE15A;
layers = (
{
layerId = m01;
shapes = (
{
closed = 1;
nodes = (
(0,221,o),
(135,400,o),
(300,400,cs),
(465,400,o),
(600,221,o),
(600,0,c),
(800,0,l),
(800,331,o),
(621,600,o),
(400,600,cs),
(179,600,o),
(0,331,o),
(0,0,cs)
);
}
);
width = 800;
}
);
note = uniE15A;
unicode = 57690;
},
{
glyphname = uniE164;
layers = (
{
layerId = m01;
shapes = (
{
closed = 1;
nodes = (
(400,110,o),
(445,200,o),
(500,200,cs),
(555,200,o),
(600,110,o),
(600,0,c),
(800,0,l),
(800,221,o),
(711,400,o),
(600,400,cs),
(489,400,o),
(400,221,o),
(400,0,cs)
);
}
);
width = 800;
}
);
note = uniE164;
unicode = 57700;
},
{
glyphname = uniE15F;
layers = (
{
layerId = m01;
shapes = (
{
closed = 1;
nodes = (
(200,331,o),
(290,600,o),
(400,600,cs),
(510,600,o),
(600,331,o),
(600,0,c),
(800,0,l),
(800,442,o),
(666,800,o),
(500,800,cs),
(334,800,o),
(200,442,o),
(200,0,cs)
);
}
);
width = 800;
}
);
note = uniE15F;
unicode = 57695;
},
{
glyphname = uniE161;
layers = (
{
layerId = m01;
shapes = (
{
closed = 1;
nodes = (
(200,221,o),
(290,400,o),
(400,400,cs),
(510,400,o),
(600,221,o),
(600,0,c),
(800,0,l),
(800,331,o),
(666,600,o),
(500,600,cs),
(334,600,o),
(200,331,o),
(200,0,cs)
);
}
);
width = 800;
}
);
note = uniE161;
unicode = 57697;
},
{
glyphname = uniE155;
layers = (
{
layerId = m01;
shapes = (
{
closed = 1;
nodes = (
(0,221,o),
(90,400,o),
(200,400,cs),
(310,400,o),
(400,221,o),
(400,0,c),
(800,0,l),
(800,442,o),
(621,800,o),
(400,800,cs),
(179,800,o),
(0,442,o),
(0,0,cs)
);
}
);
width = 800;
}
);
note = uniE155;
unicode = 57685;
},
{
glyphname = uniE160;
layers = (
{
layerId = m01;
shapes = (
{
closed = 1;
nodes = (
(200,221,o),
(245,400,o),
(300,400,cs),
(355,400,o),
(400,221,o),
(400,0,c),
(800,0,l),
(800,442,o),
(666,800,o),
(500,800,cs),
(334,800,o),
(200,442,o),
(200,0,cs)
);
}
);
width = 800;
}
);
note = uniE160;
unicode = 57696;
},
{
glyphname = uniE159;
layers = (
{
layerId = m01;
shapes = (
{
closed = 1;
nodes = (
(179,600,o),
(1,332,o),
(0,2,cs),
(0,222,o),
(90,400,o),
(200,400,cs),
(310,400,o),
(400,221,o),
(400,0,c),
(800,0,l),
(800,331,o),
(621,600,o),
(400,600,cs)
);
},
{
closed = 1;
nodes = (
(0,2,ls),
(0,1,o),
(0,1,o),
(0,0,cs)
);
}
);
width = 800;
}
);
note = uniE159;
unicode = 57689;
},
{
glyphname = uniE162;
layers = (
{
layerId = m01;
shapes = (
{
closed = 1;
nodes = (
(200,110,o),
(245,200,o),
(300,200,cs),
(355,200,o),
(400,110,o),
(400,0,c),
(800,0,l),
(800,331,o),
(666,600,o),
(500,600,cs),
(334,600,o),
(200,331,o),
(200,0,cs)
);
}
);
width = 800;
}
);
note = uniE162;
unicode = 57698;
},
{
glyphname = uniE163;
layers = (
{
layerId = m01;
shapes = (
{
closed = 1;
nodes = (
(334,400,o),
(200,221,o),
(200,1,cs),
(200,110,o),
(245,200,o),
(300,200,cs),
(355,200,o),
(400,110,o),
(400,0,c),
(800,0,l),
(800,221,o),
(666,400,o),
(500,400,cs)
);
},
{
closed = 1;
nodes = (
(200,1,l),
(200,1,o),
(200,0,o),
(200,0,c)
);
}
);
width = 800;
}
);
note = uniE163;
unicode = 57699;
},
{
glyphname = uniE156;
layers = (
{
layerId = m01;
shapes = (
{
closed = 1;
nodes = (
(0,110,o),
(45,200,o),
(100,200,cs),
(155,200,o),
(200,110,o),
(200,0,c),
(800,0,l),
(800,442,o),
(621,800,o),
(400,800,cs),
(179,800,o),
(0,442,o),
(0,0,cs)
);
}
);
width = 800;
}
);
note = uniE156;
unicode = 57686;
},
{
glyphname = uniE3F3;
layers = (
{
layerId = m01;
shapes = (
{
closed = 1;
nodes = (
(800,0,l),
(800,200,o),
(800,400,o),
(600,600,c),
(800,400,o),
(600,0,o),
(0,0,cs)
);
}
);
width = 800;
}
);
note = uniE3F3;
unicode = 58355;
},
{
glyphname = uniE3F8;
layers = (
{
layerId = m01;
shapes = (
{
closed = 1;
nodes = (
(800,0,l),
(800,200,o),
(800,400,o),
(400,600,c),
(800,400,o),
(600,0,o),
(0,0,cs)
);
}
);
width = 800;
}
);
note = uniE3F8;
unicode = 58360;
},
{
glyphname = uniE3FA;
layers = (
{
layerId = m01;
shapes = (
{
closed = 1;
nodes = (
(800,0,l),
(800,200,o),
(800,400,o),
(0,600,cs),
(600,450,o),
(600,0,o),
(0,0,cs)
);
}
);
width = 800;
}
);
note = uniE3FA;
unicode = 58362;
},
{
glyphname = uniE3FB;
layers = (
{
layerId = m01;
shapes = (
{
closed = 1;
nodes = (
(800,0,l),
(800,200,o),
(800,600,o),
(0,200,cs),
(600,500,o),
(600,0,o),
(0,0,cs)
);
}
);
width = 800;
}
);
note = uniE3FB;
unicode = 58363;
},
{
glyphname = uniE3F4;
layers = (
{
layerId = m01;
shapes = (
{
closed = 1;
nodes = (
(800,0,l),
(800,200,o),
(800,600,o),
(600,800,cs),
(750,650,o),
(600,0,o),
(0,0,cs)
);
}
);
width = 800;
}
);
note = uniE3F4;
unicode = 58356;
},
{
glyphname = uniE3F5;
layers = (
{
layerId = m01;
shapes = (
{
closed = 1;
nodes = (
(800,0,l),
(800,200,o),
(800,600,o),
(400,800,cs),
(700,650,o),
(600,0,o),
(0,0,cs)
);
}
);
width = 800;
}
);
note = uniE3F5;
unicode = 58357;
},
{
glyphname = uniE3F7;
layers = (
{
layerId = m01;
shapes = (
{
closed = 1;
nodes = (
(800,0,l),
(800,200,o),
(800,600,o),
(0,800,cs),
(600,650,o),
(600,0,o),
(0,0,cs)
);
}
);
width = 800;
}
);
note = uniE3F7;
unicode = 58359;
},
{
glyphname = uniF566;
layers = (
{
layerId = m01;
shapes = (
{
closed = 1;
nodes = (
(402,800,o),
(798,798,o),
(0,0,c),
(800,0,l),
(800,799,o),
(601,800,o),
(2,800,cs)
);
}
);
width = 800;
}
);
note = uniF566;
unicode = 62822;
},
{
glyphname = uniE606;
layers = (
{
layerId = m01;
shapes = (
{
closed = 1;
nodes = (
(800,0,l),
(800,442,o),
(442,800,o),
(0,800,cs),
(221,800,o),
(400,621,o),
(400,400,cs),
(400,180,o),
(221,3,o),
(0,0,c)
);
}
);
width = 800;
}
);
note = uniE606;
unicode = 58886;
},
{
glyphname = uniE607;
layers = (
{
layerId = m01;
shapes = (
{
closed = 1;
nodes = (
(600,0,l),
(600,338,o),
(338,600,o),
(0,600,cs),
(150,600,o),
(300,450,o),
(300,300,cs),
(300,150,o),
(150,0,o),
(0,0,cs)
);
}
);
width = 800;
}
);
note = uniE607;
unicode = 58887;
},
{
glyphname = uniE608;
layers = (
{
layerId = m01;
shapes = (
{
closed = 1;
nodes = (
(400,0,l),
(400,233,o),
(233,400,o),
(0,400,cs),
(100,400,o),
(200,300,o),
(200,200,cs),
(200,100,o),
(100,0,o),
(0,0,cs)
);
}
);
width = 800;
}
);
note = uniE608;
unicode = 58888;
},
{
glyphname = uniF564;
layers = (
{
layerId = m01;
shapes = (
{
closed = 1;
nodes = (
(601,800,o),
(799,798,o),
(400,0,c),
(800,0,l),
(800,799,o),
(700,800,o),
(401,800,cs)
);
}
);
width = 800;
}
);
note = uniF564;
unicode = 62820;
},
{
glyphname = uniF567;
layers = (
{
layerId = m01;
shapes = (
{
closed = 1;
nodes = (
(0,0,ls),
(0,300,o),
(150,600,o),
(400,600,cs),
(650,600,o),
(600,200,o),
(400,0,c),
(800,0,l),
(800,400,ls),
(800,650,o),
(650,800,o),
(400,800,cs),
(150,800,o),
(0,650,o),
(0,400,cs)
);
}
);
width = 800;
}
);
note = uniF567;
unicode = 62823;
},
{
glyphname = uniF568;
layers = (
{
layerId = m01;
shapes = (
{
closed = 1;
nodes = (
(800,0,l),
(800,400,ls),
(800,650,o),
(600,800,o),
(400,800,cs),
(300,800,o),
(100,800,o),
(0,600,c),
(0,200,l),
(100,400,o),
(200,600,o),
(400,600,cs),
(650,600,o),
(600,200,o),
(400,0,c)
);
}
);
width = 800;
}
);
note = uniF568;
unicode = 62824;
},
{
glyphname = uniF569;
layers = (
{
layerId = m01;
shapes = (
{
closed = 1;
nodes = (
(600,0,l),
(800,100,o),
(800,300,o),
(800,400,cs),
(800,600,o),
(600,800,o),
(400,800,cs),
(300,800,o),
(100,800,o),
(0,600,c),
(0,200,l),
(100,400,o),
(400,800,o),
(600,600,cs),
(800,400,o),
(400,100,o),
(200,0,c)
);
}
);
width = 800;
}
);
note = uniF569;
unicode = 62825;
},
{
glyphname = uniF56A;
layers = (
{
layerId = m01;
shapes = (
{
closed = 1;
nodes = (
(0,0,ls),
(0,300,o),
(50,400,o),
(200,400,cs),
(350,400,o),
(400,300,o),
(400,0,c),
(800,0,l),
(800,400,ls),
(800,600,o),
(700,800,o),
(400,800,cs),
(100,800,o),
(0,600,o),
(0,400,cs)
);
}
);
width = 800;
}
);
note = uniF56A;
unicode = 62826;
},
{
glyphname = uniF56B;
layers = (
{
layerId = m01;
shapes = (
{
closed = 1;
nodes = (
(0,0,ls),
(0,150,o),
(50,200,o),
(200,200,cs),
(350,200,o),
(400,150,o),
(400,0,c),
(800,0,l),
(800,400,ls),
(800,600,o),
(700,800,o),
(400,800,cs),
(100,800,o),
(0,600,o),
(0,400,cs)
);
}
);
width = 800;
}
);
note = uniF56B;
unicode = 62827;
},
{
glyphname = uniF56C;
layers = (
{
layerId = m01;
shapes = (
{
closed = 1;
nodes = (
(0,0,ls),
(0,450,o),
(50,600,o),
(200,600,cs),
(350,600,o),
(400,450,o),
(400,0,c),
(800,0,l),
(800,400,ls),
(800,650,o),
(650,800,o),
(400,800,cs),
(100,800,o),
(0,600,o),
(0,400,cs)
);
}
);
width = 800;
}
);
note = uniF56C;
unicode = 62828;
},
{
glyphname = uniE09C;
layers = (
{
layerId = m01;
shapes = (
{
closed = 1;
nodes = (
(0,0,l),
(300,0,o),
(400,200,o),
(400,800,cs),
(400,650,o),
(300,600,o),
(0,600,c)
);
},
{
closed = 1;
nodes = (
(800,600,l),
(500,600,o),
(400,650,o),
(400,800,cs),
(400,200,o),
(500,0,o),
(800,0,c)
);
}
);
width = 800;
}
);
note = uniE09C;
unicode = 57500;
},
{
glyphname = uniE09B;
layers = (
{
layerId = m01;
shapes = (
{
closed = 1;
nodes = (
(0,0,l),
(300,0,o),
(400,150,o),
(400,600,c),
(400,150,o),
(500,0,o),
(800,0,c),
(800,600,l),
(500,600,o),
(400,650,o),
(400,800,c),
(400,650,o),
(300,600,o),
(0,600,c)
);
}
);
width = 800;
}
);
note = uniE09B;
unicode = 57499;
},
{
glyphname = uniE09A;
layers = (
{
layerId = m01;
shapes = (
{
closed = 1;
nodes = (
(0,0,l),
(300,0,o),
(400,100,o),
(400,400,c),
(400,100,o),
(500,0,o),
(800,0,c),
(800,600,l),
(500,600,o),
(400,650,o),
(400,800,c),
(400,650,o),
(300,600,o),
(0,600,c)
);
}
);
width = 800;
}
);
note = uniE09A;
unicode = 57498;
},
{
glyphname = uniE099;
layers = (
{
layerId = m01;
shapes = (
{
closed = 1;
nodes = (
(0,0,l),
(300,0,o),
(400,50,o),
(400,200,c),
(400,50,o),
(500,0,o),
(800,0,c),
(800,600,l),
(500,600,o),
(400,650,o),
(400,800,c),
(400,650,o),
(300,600,o),
(0,600,c)
);
}
);
width = 800;
}
);
note = uniE099;
unicode = 57497;
},
{
glyphname = uniE0A7;
layers = (
{
layerId = m01;
shapes = (
{
closed = 1;
nodes = (
(0,0,l),
(300,0,o),
(400,200,o),
(400,800,cs),
(400,500,o),
(300,400,o),
(0,400,c)
);
},
{
closed = 1;
nodes = (
(800,400,l),
(500,400,o),
(400,500,o),
(400,800,cs),
(400,200,o),
(500,0,o),
(800,0,c)
);
}
);
width = 800;
}
);
note = uniE0A7;
unicode = 57511;
},
{
glyphname = uniE0A8;
layers = (
{
layerId = m01;
shapes = (
{
closed = 1;
nodes = (
(0,0,l),
(300,0,o),
(400,150,o),
(400,600,c),
(400,150,o),
(500,0,o),
(800,0,c),
(800,400,l),
(500,400,o),
(400,500,o),
(400,800,c),
(400,500,o),
(300,400,o),
(0,400,c)
);
}
);
width = 800;
}
);
note = uniE0A8;
unicode = 57512;
},
{
glyphname = uniE0A2;
layers = (
{
layerId = m01;
shapes = (
{
closed = 1;
nodes = (
(0,0,l),
(300,0,o),
(400,150,o),
(400,600,cs),
(400,450,o),
(300,400,o),
(0,400,c)
);
},
{
closed = 1;
nodes = (
(800,400,l),
(500,400,o),
(400,450,o),
(400,600,cs),
(400,150,o),
(500,0,o),
(800,0,c)
);
}
);
width = 800;
}
);
note = uniE0A2;
unicode = 57506;
},
{
glyphname = uniE0A9;
layers = (
{
layerId = m01;
shapes = (
{
closed = 1;
nodes = (
(0,0,l),
(300,0,o),
(400,100,o),
(400,400,c),
(400,100,o),
(500,0,o),
(800,0,c),
(800,400,l),
(500,400,o),
(400,500,o),
(400,800,c),
(400,500,o),
(300,400,o),
(0,400,c)
);
}
);
width = 800;
}
);
note = uniE0A9;
unicode = 57513;
},
{
glyphname = uniE0A3;
layers = (
{
layerId = m01;
shapes = (
{
closed = 1;
nodes = (
(0,0,l),
(300,0,o),
(400,100,o),
(400,400,c),
(400,100,o),
(500,0,o),
(800,0,c),
(800,400,l),
(500,400,o),
(400,450,o),
(400,600,c),
(400,450,o),
(300,400,o),
(0,400,c)
);
}
);
width = 800;
}
);
note = uniE0A3;
unicode = 57507;
},
{
glyphname = uniE0A4;
layers = (
{
layerId = m01;
shapes = (
{
closed = 1;
nodes = (
(0,0,l),
(300,0,o),
(400,50,o),
(400,200,c),
(400,50,o),
(500,0,o),
(800,0,c),
(800,400,l),
(500,400,o),
(400,450,o),
(400,600,c),
(400,450,o),
(300,400,o),
(0,400,c)
);
}
);
width = 800;
}
);
note = uniE0A4;
unicode = 57508;
},
{
glyphname = uniE0AA;
layers = (
{
layerId = m01;
shapes = (
{
closed = 1;
nodes = (
(0,0,l),
(300,0,o),
(400,50,o),
(400,200,c),
(400,50,o),
(500,0,o),
(800,0,c),
(800,400,l),
(500,400,o),
(400,500,o),
(400,800,c),
(400,500,o),
(300,400,o),
(0,400,c)
);
}
);
width = 800;
}
);
note = uniE0AA;
unicode = 57514;
},
{
glyphname = uniE0B4;
layers = (
{
layerId = m01;
shapes = (
{
closed = 1;
nodes = (
(0,0,l),
(300,0,o),
(400,150,o),
(400,600,c),
(400,150,o),
(500,0,o),
(800,0,c),
(800,200,l),
(500,200,o),
(400,350,o),
(400,800,c),
(400,350,o),
(300,200,o),
(0,200,c)
);
}
);
width = 800;
}
);
note = uniE0B4;
unicode = 57524;
},
{
glyphname = uniE0B5;
layers = (
{
layerId = m01;
shapes = (
{
closed = 1;
nodes = (
(0,0,l),
(300,0,o),
(400,100,o),
(400,400,c),
(400,100,o),
(500,0,o),
(800,0,c),
(800,200,l),
(500,200,o),
(400,350,o),
(400,800,c),
(400,350,o),
(300,200,o),
(0,200,c)
);
}
);
width = 800;
}
);
note = uniE0B5;
unicode = 57525;
},
{
glyphname = uniE0B3;
layers = (
{
layerId = m01;
shapes = (
{
closed = 1;
nodes = (
(0,0,l),
(300,0,o),
(400,150,o),
(400,600,cs),
(400,300,o),
(300,200,o),
(0,200,c)
);
},
{
closed = 1;
nodes = (
(800,200,l),
(500,200,o),
(400,300,o),
(400,600,cs),
(400,150,o),
(500,0,o),
(800,0,c)
);
}
);
width = 800;
}
);
note = uniE0B3;
unicode = 57523;
},
{
glyphname = uniE0B2;
layers = (
{
layerId = m01;
shapes = (
{
closed = 1;
nodes = (
(0,0,l),
(300,0,o),
(400,100,o),
(400,400,c),
(400,100,o),
(500,0,o),
(800,0,c),
(800,200,l),
(500,200,o),
(400,300,o),
(400,600,c),
(400,300,o),
(300,200,o),
(0,200,c)
);
}
);
width = 800;
}
);
note = uniE0B2;
unicode = 57522;
},
{
glyphname = uniE0AF;
layers = (
{
layerId = m01;
shapes = (
{
closed = 1;
nodes = (
(0,0,l),
(300,0,o),
(400,100,o),
(400,400,cs),
(400,250,o),
(300,200,o),
(0,200,c)
);
},
{
closed = 1;
nodes = (
(800,200,l),
(500,200,o),
(400,250,o),
(400,400,cs),
(400,100,o),
(500,0,o),
(800,0,c)
);
}
);
width = 800;
}
);
note = uniE0AF;
unicode = 57519;
},
{
glyphname = uniE0B6;
layers = (
{
layerId = m01;
shapes = (
{
closed = 1;
nodes = (
(0,0,l),
(300,0,o),
(400,50,o),
(400,200,c),
(400,50,o),
(500,0,o),
(800,0,c),
(800,200,l),
(500,200,o),
(400,350,o),
(400,800,c),
(400,350,o),
(300,200,o),
(0,200,c)
);
}
);
width = 800;
}
);
note = uniE0B6;
unicode = 57526;
},
{
glyphname = uniE0B1;
layers = (
{
layerId = m01;
shapes = (
{
closed = 1;
nodes = (
(0,0,l),
(300,0,o),
(400,50,o),
(400,200,c),
(400,50,o),
(500,0,o),
(800,0,c),
(800,200,l),
(500,200,o),
(400,300,o),
(400,600,c),
(400,300,o),
(300,200,o),
(0,200,c)
);
}
);
width = 800;
}
);
note = uniE0B1;
unicode = 57521;
},
{
glyphname = uniE0B0;
layers = (
{
layerId = m01;
shapes = (
{
closed = 1;
nodes = (
(0,0,l),
(300,0,o),
(400,50,o),
(400,200,c),
(400,50,o),
(500,0,o),
(800,0,c),
(800,200,l),
(500,200,o),
(400,250,o),
(400,400,c),
(400,250,o),
(300,200,o),
(0,200,c)
);
}
);
width = 800;
}
);
note = uniE0B0;
unicode = 57520;
},
{
glyphname = uniE258;
layers = (
{
layerId = m01;
shapes = (
{
closed = 1;
nodes = (
(0,0,l),
(200,800,o),
(200,800,o),
(0,800,c)
);
}
);
width = 800;
}
);
note = uniE258;
unicode = 57944;
},
{
glyphname = uniE0F4;
layers = (
{
layerId = m01;
shapes = (
{
closed = 1;
nodes = (
(0,0,l),
(150,600,o),
(150,600,o),
(0,600,c)
);
}
);
width = 800;
}
);
note = uniE0F4;
unicode = 57588;
},
{
glyphname = uniE0FD;
layers = (
{
layerId = m01;
shapes = (
{
closed = 1;
nodes = (
(0,0,l),
(100,400,o),
(100,400,o),
(0,400,c)
);
}
);
width = 800;
}
);
note = uniE0FD;
unicode = 57597;
},
{
glyphname = uniE614;
layers = (
{
layerId = m01;
shapes = (
{
closed = 1;
nodes = (
(600,0,l),
(800,800,o),
(800,800,o),
(0,800,c),
(0,0,l)
);
}
);
width = 800;
}
);
note = uniE614;
unicode = 58900;
},
{
glyphname = uniE612;
layers = (
{
layerId = m01;
shapes = (
{
closed = 1;
nodes = (
(400,0,l),
(600,800,o),
(600,800,o),
(0,800,c),
(0,0,l)
);
}
);
width = 800;
}
);
note = uniE612;
unicode = 58898;
},
{
glyphname = uniE880;
layers = (
{
layerId = m01;
shapes = (
{
closed = 1;
nodes = (
(200,0,l),
(400,800,o),
(400,800,o),
(0,800,c),
(0,0,l)
);
}
);
width = 800;
}
);
note = uniE880;
unicode = 59520;
},
{
glyphname = uniE447;
layers = (
{
layerId = m01;
shapes = (
{
closed = 1;
nodes = (
(600,0,l),
(750,600,o),
(750,600,o),
(0,600,c),
(0,0,l)
);
}
);
width = 800;
}
);
note = uniE447;
unicode = 58439;
},
{
glyphname = uniE448;
layers = (
{
layerId = m01;
shapes = (
{
closed = 1;
nodes = (
(400,0,l),
(550,600,o),
(550,600,o),
(0,600,c),
(0,0,l)
);
}
);
width = 800;
}
);
note = uniE448;
unicode = 58440;
},
{
glyphname = uniE449;
layers = (
{
layerId = m01;
shapes = (
{
closed = 1;
nodes = (
(200,0,l),
(350,600,o),
(350,600,o),
(0,600,c),
(0,0,l)
);
}
);
width = 800;
}
);
note = uniE449;
unicode = 58441;
},
{
glyphname = uniE44A;
layers = (
{
layerId = m01;
shapes = (
{
closed = 1;
nodes = (
(600,0,l),
(700,400,o),
(700,400,o),
(0,400,c),
(0,0,l)
);
}
);
width = 800;
}
);
note = uniE44A;
unicode = 58442;
},
{
glyphname = uniE44B;
layers = (
{
layerId = m01;
shapes = (
{
closed = 1;
nodes = (
(400,0,l),
(500,400,o),
(500,400,o),
(0,400,c),
(0,0,l)
);
}
);
width = 800;
}
);
note = uniE44B;
unicode = 58443;
},
{
glyphname = uniE44C;
layers = (
{
layerId = m01;
shapes = (
{
closed = 1;
nodes = (
(200,0,l),
(300,400,o),
(300,400,o),
(0,400,c),
(0,0,l)
);
}
);
width = 800;
}
);
note = uniE44C;
unicode = 58444;
},
{
glyphname = uniE44D;
layers = (
{
layerId = m01;
shapes = (
{
closed = 1;
nodes = (
(600,0,l),
(650,200,o),
(650,200,o),
(0,200,c),
(0,0,l)
);
}
);
width = 800;
}
);
note = uniE44D;
unicode = 58445;
},
{
glyphname = uniE44E;
layers = (
{
layerId = m01;
shapes = (
{
closed = 1;
nodes = (
(400,0,l),
(450,200,o),
(450,200,o),
(0,200,c),
(0,0,l)
);
}
);
width = 800;
}
);
note = uniE44E;
unicode = 58446;
},
{
glyphname = uniE44F;
layers = (
{
layerId = m01;
shapes = (
{
closed = 1;
nodes = (
(200,0,l),
(250,200,o),
(250,200,o),
(0,200,c),
(0,0,l)
);
}
);
width = 800;
}
);
note = uniE44F;
unicode = 58447;
},
{
glyphname = uniE0F5;
layers = (
{
layerId = m01;
shapes = (
{
closed = 1;
nodes = (
(0,0,l),
(400,800,o),
(400,800,o),
(0,800,c)
);
}
);
width = 800;
}
);
note = uniE0F5;
unicode = 57589;
},
{
glyphname = uniE0F9;
layers = (
{
layerId = m01;
shapes = (
{
closed = 1;
nodes = (
(0,0,l),
(300,600,o),
(300,600,o),
(0,600,c)
);
}
);
width = 800;
}
);
note = uniE0F9;
unicode = 57593;
},
{
glyphname = uniE120;
layers = (
{
layerId = m01;
shapes = (
{
closed = 1;
nodes = (
(0,0,l),
(200,400,o),
(200,400,o),
(0,400,c)
);
}
);
width = 800;
}
);
note = uniE120;
unicode = 57632;
},
{
glyphname = uniE613;
layers = (
{
layerId = m01;
shapes = (
{
closed = 1;
nodes = (
(400,0,l),
(800,800,o),
(800,800,o),
(0,800,c),
(0,0,l)
);
}
);
width = 800;
}
);
note = uniE613;
unicode = 58899;
},
{
glyphname = uniE09D;
layers = (
{
layerId = m01;
shapes = (
{
closed = 1;
nodes = (
(400,0,l),
(800,800,o),
(800,800,o),
(0,800,c),
(0,0,l)
);
}
);
width = 800;
}
);
note = uniE09D;
unicode = 57501;
},
{
glyphname = uniE610;
layers = (
{
layerId = m01;
shapes = (
{
closed = 1;
nodes = (
(200,0,l),
(600,800,o),
(600,800,o),
(0,800,c),
(0,0,l)
);
}
);
width = 800;
}
);
note = uniE610;
unicode = 58896;
},
{
glyphname = uniE0B7;
layers = (
{
layerId = m01;
shapes = (
{
closed = 1;
nodes = (
(400,0,l),
(700,600,o),
(700,600,o),
(0,600,c),
(0,0,l)
);
}
);
width = 800;
}
);
note = uniE0B7;
unicode = 57527;
},
{
glyphname = uniE0AB;
layers = (
{
layerId = m01;
shapes = (
{
closed = 1;
nodes = (
(200,0,l),
(500,600,o),
(500,600,o),
(0,600,c),
(0,0,l)
);
}
);
width = 800;
}
);
note = uniE0AB;
unicode = 57515;
},
{
glyphname = uniE0DB;
layers = (
{
layerId = m01;
shapes = (
{
closed = 1;
nodes = (
(600,0,l),
(800,400,o),
(800,400,o),
(0,400,c),
(0,0,l)
);
}
);
width = 800;
}
);
note = uniE0DB;
unicode = 57563;
},
{
glyphname = uniE0FB;
layers = (
{
layerId = m01;
shapes = (
{
closed = 1;
nodes = (
(400,0,l),
(600,400,o),
(600,400,o),
(0,400,c),
(0,0,l)
);
}
);
width = 800;
}
);
note = uniE0FB;
unicode = 57595;
},
{
glyphname = uniE0FE;
layers = (
{
layerId = m01;
shapes = (
{
closed = 1;
nodes = (
(200,0,l),
(400,400,o),
(400,400,o),
(0,400,c),
(0,0,l)
);
}
);
width = 800;
}
);
note = uniE0FE;
unicode = 57598;
},
{
glyphname = uniE0F6;
layers = (
{
layerId = m01;
shapes = (
{
closed = 1;
nodes = (
(0,0,l),
(800,800,o),
(800,800,o),
(0,800,c)
);
}
);
width = 800;
}
);
note = uniE0F6;
unicode = 57590;
},
{
glyphname = uniE0F3;
layers = (
{
layerId = m01;
shapes = (
{
closed = 1;
nodes = (
(0,0,l),
(600,600,o),
(598,600,o),
(0,600,c)
);
}
);
width = 800;
}
);
note = uniE0F3;
unicode = 57587;
},
{
glyphname = uniE0FF;
layers = (
{
layerId = m01;
shapes = (
{
closed = 1;
nodes = (
(0,0,l),
(400,400,o),
(400,400,o),
(0,400,c)
);
}
);
width = 800;
}
);
note = uniE0FF;
unicode = 57599;
},
{
glyphname = uniE611;
layers = (
{
layerId = m01;
shapes = (
{
closed = 1;
nodes = (
(200,0,l),
(800,600,o),
(800,800,o),
(0,800,c),
(0,0,l)
);
}
);
width = 800;
}
);
note = uniE611;
unicode = 58897;
},
{
glyphname = uniE0AD;
layers = (
{
layerId = m01;
shapes = (
{
closed = 1;
nodes = (
(200,0,l),
(796,600,o),
(796,600,o),
(0,600,c),
(0,0,l)
);
}
);
width = 800;
}
);
note = uniE0AD;
unicode = 57517;
},
{
glyphname = uniE0F0;
layers = (
{
layerId = m01;
shapes = (
{
closed = 1;
nodes = (
(400,0,l),
(800,400,o),
(800,400,o),
(0,400,c),
(0,0,l)
);
}
);
width = 800;
}
);
note = uniE0F0;
unicode = 57584;
},
{
glyphname = uniE0FC;
layers = (
{
layerId = m01;
shapes = (
{
closed = 1;
nodes = (
(200,0,l),
(600,400,o),
(602,400,o),
(0,400,c),
(0,0,l)
);
}
);
width = 800;
}
);
note = uniE0FC;
unicode = 57596;
},
{
glyphname = uniE0FA;
layers = (
{
layerId = m01;
shapes = (
{
closed = 1;
nodes = (
(0,0,l),
(800,400,o),
(800,400,o),
(0,400,c)
);
}
);
width = 800;
}
);
note = uniE0FA;
unicode = 57594;
},
{
glyphname = uniE184;
layers = (
{
layerId = m01;
shapes = (
{
closed = 1;
nodes = (
(0,0,l),
(100,400,o),
(100,400,o),
(0,800,c)
);
}
);
width = 800;
}
);
note = uniE184;
unicode = 57732;
},
{
glyphname = uniE185;
layers = (
{
layerId = m01;
shapes = (
{
closed = 1;
nodes = (
(0,0,l),
(100,400,o),
(100,600,o),
(0,800,c)
);
}
);
width = 800;
}
);
note = uniE185;
unicode = 57733;
},
{
glyphname = uniE186;
layers = (
{
layerId = m01;
shapes = (
{
closed = 1;
nodes = (
(0,0,l),
(150,600,o),
(150,650,o),
(0,800,c)
);
}
);
width = 800;
}
);
note = uniE186;
unicode = 57734;
},
{
glyphname = uniE187;
layers = (
{
layerId = m01;
shapes = (
{
closed = 1;
nodes = (
(0,0,l),
(150,600,o),
(200,700,o),
(0,800,c)
);
}
);
width = 800;
}
);
note = uniE187;
unicode = 57735;
},
{
glyphname = uniE188;
layers = (
{
layerId = m01;
shapes = (
{
closed = 1;
nodes = (
(0,0,l),
(150,600,o),
(200,750,o),
(0,800,c)
);
}
);
width = 800;
}
);
note = uniE188;
unicode = 57736;
},
{
glyphname = uniE189;
layers = (
{
layerId = m01;
shapes = (
{
closed = 1;
nodes = (
(0,0,l),
(200,400,o),
(200,400,o),
(0,800,c)
);
}
);
width = 800;
}
);
note = uniE189;
unicode = 57737;
},
{
glyphname = uniE18A;
layers = (
{
layerId = m01;
shapes = (
{
closed = 1;
nodes = (
(0,0,l),
(250,500,o),
(250,550,o),
(0,800,c)
);
}
);
width = 800;
}
);
note = uniE18A;
unicode = 57738;
},
{
glyphname = uniE18B;
layers = (
{
layerId = m01;
shapes = (
{
closed = 1;
nodes = (
(0,0,l),
(300,600,o),
(300,650,o),
(0,800,c)
);
}
);
width = 800;
}
);
note = uniE18B;
unicode = 57739;
},
{
glyphname = uniE18C;
layers = (
{
layerId = m01;
shapes = (
{
closed = 1;
nodes = (
(0,0,l),
(300,600,o),
(400,700,o),
(0,800,c)
);
}
);
width = 800;
}
);
note = uniE18C;
unicode = 57740;
},
{
glyphname = uniE18D;
layers = (
{
layerId = m01;
shapes = (
{
closed = 1;
nodes = (
(0,0,l),
(400,400,o),
(400,400,o),
(0,800,c)
);
}
);
width = 800;
}
);
note = uniE18D;
unicode = 57741;
},
{
glyphname = uniE18E;
layers = (
{
layerId = m01;
shapes = (
{
closed = 1;
nodes = (
(0,0,l),
(500,500,o),
(500,550,o),
(0,800,c)
);
}
);
width = 800;
}
);
note = uniE18E;
unicode = 57742;
},
{
glyphname = uniE18F;
layers = (
{
layerId = m01;
shapes = (
{
closed = 1;
nodes = (
(0,0,l),
(600,600,o),
(600,650,o),
(0,800,c)
);
}
);
width = 800;
}
);
note = uniE18F;
unicode = 57743;
},
{
glyphname = uniE190;
layers = (
{
layerId = m01;
shapes = (
{
closed = 1;
nodes = (
(0,0,l),
(600,300,o),
(600,500,o),
(0,800,c)
);
}
);
width = 800;
}
);
note = uniE190;
unicode = 57744;
},
{
glyphname = uniE191;
layers = (
{
layerId = m01;
shapes = (
{
closed = 1;
nodes = (
(0,0,l),
(800,400,o),
(800,600,o),
(0,800,c)
);
}
);
width = 800;
}
);
note = uniE191;
unicode = 57745;
},
{
glyphname = uniE192;
layers = (
{
layerId = m01;
shapes = (
{
closed = 1;
nodes = (
(0,0,l),
(600,150,o),
(600,650,o),
(0,800,c)
);
}
);
width = 800;
}
);
note = uniE192;
unicode = 57746;
},
{
glyphname = uniE193;
layers = (
{
layerId = m01;
shapes = (
{
closed = 1;
nodes = (
(0,800,l),
(0,0,l),
(200,0,l),
(300,400,o),
(300,400,o),
(200,800,c)
);
}
);
width = 800;
}
);
note = uniE193;
unicode = 57747;
},
{
glyphname = uniE194;
layers = (
{
layerId = m01;
shapes = (
{
closed = 1;
nodes = (
(0,800,l),
(0,0,l),
(200,0,l),
(300,400,o),
(300,600,o),
(200,800,c)
);
}
);
width = 800;
}
);
note = uniE194;
unicode = 57748;
},
{
glyphname = uniE195;
layers = (
{
layerId = m01;
shapes = (
{
closed = 1;
nodes = (
(0,800,l),
(0,0,l),
(200,0,l),
(350,600,o),
(350,650,o),
(200,800,c)
);
}
);
width = 800;
}
);
note = uniE195;
unicode = 57749;
},
{
glyphname = uniE196;
layers = (
{
layerId = m01;
shapes = (
{
closed = 1;
nodes = (
(0,800,l),
(0,0,l),
(200,0,l),
(350,600,o),
(400,700,o),
(200,800,c)
);
}
);
width = 800;
}
);
note = uniE196;
unicode = 57750;
},
{
glyphname = uniE197;
layers = (
{
layerId = m01;
shapes = (
{
closed = 1;
nodes = (
(0,800,l),
(0,0,l),
(200,0,l),
(350,600,o),
(400,750,o),
(200,800,c)
);
}
);
width = 800;
}
);
note = uniE197;
unicode = 57751;
},
{
glyphname = uniE198;
layers = (
{
layerId = m01;
shapes = (
{
closed = 1;
nodes = (
(0,800,l),
(0,0,l),
(200,0,l),
(400,400,o),
(400,400,o),
(200,800,c)
);
}
);
width = 800;
}
);
note = uniE198;
unicode = 57752;
},
{
glyphname = uniE199;
layers = (
{
layerId = m01;
shapes = (
{
closed = 1;
nodes = (
(0,800,l),
(0,0,l),
(200,0,l),
(450,500,o),
(450,550,o),
(200,800,c)
);
}
);
width = 800;
}
);
note = uniE199;
unicode = 57753;
},
{
glyphname = uniE19A;
layers = (
{
layerId = m01;
shapes = (
{
closed = 1;
nodes = (
(0,800,l),
(0,0,l),
(200,0,l),
(500,600,o),
(500,650,o),
(200,800,c)
);
}
);
width = 800;
}
);
note = uniE19A;
unicode = 57754;
},
{
glyphname = uniE19B;
layers = (
{
layerId = m01;
shapes = (
{
closed = 1;
nodes = (
(0,800,l),
(0,0,l),
(200,0,l),
(500,600,o),
(600,700,o),
(200,800,c)
);
}
);
width = 800;
}
);
note = uniE19B;
unicode = 57755;
},
{
glyphname = uniE19C;
layers = (
{
layerId = m01;
shapes = (
{
closed = 1;
nodes = (
(0,800,l),
(0,0,l),
(200,0,l),
(600,400,o),
(600,400,o),
(200,800,c)
);
}
);
width = 800;
}
);
note = uniE19C;
unicode = 57756;
},
{
glyphname = uniE19D;
layers = (
{
layerId = m01;
shapes = (
{
closed = 1;
nodes = (
(0,800,l),
(0,0,l),
(200,0,l),
(700,500,o),
(700,550,o),
(200,800,c)
);
}
);
width = 800;
}
);
note = uniE19D;
unicode = 57757;
},
{
glyphname = uniE19E;
layers = (
{
layerId = m01;
shapes = (
{
closed = 1;
nodes = (
(0,800,l),
(0,0,l),
(200,0,l),
(800,600,o),
(800,650,o),
(200,800,c)
);
}
);
width = 800;
}
);
note = uniE19E;
unicode = 57758;
},
{
glyphname = uniE19F;
layers = (
{
layerId = m01;
shapes = (
{
closed = 1;
nodes = (
(0,800,l),
(0,0,l),
(200,0,l),
(800,300,o),
(800,500,o),
(200,800,c)
);
}
);
width = 800;
}
);
note = uniE19F;
unicode = 57759;
},
{
glyphname = uniE1A0;
layers = (
{
layerId = m01;
shapes = (
{
closed = 1;
nodes = (
(0,800,l),
(0,0,l),
(200,0,l),
(1000,400,o),
(1000,600,o),
(200,800,c)
);
}
);
width = 800;
}
);
note = uniE1A0;
unicode = 57760;
},
{
glyphname = uniE1A1;
layers = (
{
layerId = m01;
shapes = (
{
closed = 1;
nodes = (
(0,800,l),
(0,0,l),
(200,0,l),
(800,150,o),
(800,650,o),
(200,800,c)
);
}
);
width = 800;
}
);
note = uniE1A1;
unicode = 57761;
},
{
glyphname = uniE1A3;
layers = (
{
layerId = m01;
shapes = (
{
closed = 1;
nodes = (
(0,800,l),
(0,0,l),
(600,0,l),
(700,400,o),
(700,400,o),
(600,800,c)
);
}
);
width = 800;
}
);
note = uniE1A3;
unicode = 57763;
},
{
glyphname = uniE1A4;
layers = (
{
layerId = m01;
shapes = (
{
closed = 1;
nodes = (
(0,800,l),
(0,0,l),
(600,0,l),
(700,400,o),
(700,600,o),
(600,800,c)
);
}
);
width = 800;
}
);
note = uniE1A4;
unicode = 57764;
},
{
glyphname = uniE1A5;
layers = (
{
layerId = m01;
shapes = (
{
closed = 1;
nodes = (
(0,800,l),
(0,0,l),
(600,0,l),
(750,600,o),
(750,650,o),
(600,800,c)
);
}
);
width = 800;
}
);
note = uniE1A5;
unicode = 57765;
},
{
glyphname = uniE1A6;
layers = (
{
layerId = m01;
shapes = (
{
closed = 1;
nodes = (
(0,800,l),
(0,0,l),
(600,0,l),
(750,600,o),
(800,700,o),
(600,800,c)
);
}
);
width = 800;
}
);
note = uniE1A6;
unicode = 57766;
},
{
glyphname = uniE1A7;
layers = (
{
layerId = m01;
shapes = (
{
closed = 1;
nodes = (
(0,800,l),
(0,0,l),
(600,0,l),
(750,600,o),
(800,750,o),
(600,800,c)
);
}
);
width = 800;
}
);
note = uniE1A7;
unicode = 57767;
},
{
glyphname = uniE1A8;
layers = (
{
layerId = m01;
shapes = (
{
closed = 1;
nodes = (
(0,800,l),
(0,0,l),
(600,0,l),
(800,400,o),
(800,400,o),
(600,800,c)
);
}
);
width = 800;
}
);
note = uniE1A8;
unicode = 57768;
},
{
glyphname = uniE1A9;
layers = (
{
layerId = m01;
shapes = (
{
closed = 1;
nodes = (
(0,800,l),
(0,0,l),
(600,0,l),
(850,500,o),
(850,550,o),
(600,800,c)
);
}
);
width = 800;
}
);
note = uniE1A9;
unicode = 57769;
},
{
glyphname = uniE1AA;
layers = (
{
layerId = m01;
shapes = (
{
closed = 1;
nodes = (
(0,800,l),
(0,0,l),
(400,0,l),
(700,600,o),
(700,650,o),
(400,800,c)
);
}
);
width = 800;
}
);
note = uniE1AA;
unicode = 57770;
},
{
glyphname = uniE1AB;
layers = (
{
layerId = m01;
shapes = (
{
closed = 1;
nodes = (
(0,800,l),
(0,0,l),
(400,0,l),
(700,600,o),
(800,700,o),
(400,800,c)
);
}
);
width = 800;
}
);
note = uniE1AB;
unicode = 57771;
},
{
glyphname = uniE1AC;
layers = (
{
layerId = m01;
shapes = (
{
closed = 1;
nodes = (
(0,800,l),
(0,0,l),
(400,0,l),
(800,400,o),
(800,400,o),
(400,800,c)
);
}
);
width = 800;
}
);
note = uniE1AC;
unicode = 57772;
},
{
glyphname = uniE1AD;
layers = (
{
layerId = m01;
shapes = (
{
closed = 1;
nodes = (
(0,800,l),
(0,0,l),
(400,0,l),
(900,500,o),
(900,550,o),
(400,800,c)
);
}
);
width = 800;
}
);
note = uniE1AD;
unicode = 57773;
},
{
glyphname = uniE1AF;
layers = (
{
layerId = m01;
shapes = (
{
closed = 1;
nodes = (
(0,800,l),
(0,0,l),
(400,0,l),
(500,400,o),
(500,400,o),
(400,800,c)
);
}
);
width = 800;
}
);
note = uniE1AF;
unicode = 57775;
},
{
glyphname = uniE1B0;
layers = (
{
layerId = m01;
shapes = (
{
closed = 1;
nodes = (
(0,800,l),
(0,0,l),
(400,0,l),
(500,400,o),
(500,600,o),
(400,800,c)
);
}
);
width = 800;
}
);
note = uniE1B0;
unicode = 57776;
},
{
glyphname = uniE1B1;
layers = (
{
layerId = m01;
shapes = (
{
closed = 1;
nodes = (
(0,800,l),
(0,0,l),
(400,0,l),
(550,600,o),
(550,650,o),
(400,800,c)
);
}
);
width = 800;
}
);
note = uniE1B1;
unicode = 57777;
},
{
glyphname = uniE1B2;
layers = (
{
layerId = m01;
shapes = (
{
closed = 1;
nodes = (
(0,800,l),
(0,0,l),
(400,0,l),
(550,600,o),
(600,700,o),
(400,800,c)
);
}
);
width = 800;
}
);
note = uniE1B2;
unicode = 57778;
},
{
glyphname = uniE1B3;
layers = (
{
layerId = m01;
shapes = (
{
closed = 1;
nodes = (
(0,800,l),
(0,0,l),
(400,0,l),
(550,600,o),
(600,750,o),
(400,800,c)
);
}
);
width = 800;
}
);
note = uniE1B3;
unicode = 57779;
},
{
glyphname = uniE1B4;
layers = (
{
layerId = m01;
shapes = (
{
closed = 1;
nodes = (
(0,800,l),
(0,0,l),
(400,0,l),
(600,400,o),
(600,400,o),
(400,800,c)
);
}
);
width = 800;
}
);
note = uniE1B4;
unicode = 57780;
},
{
glyphname = uniE1B5;
layers = (
{
layerId = m01;
shapes = (
{
closed = 1;
nodes = (
(0,800,l),
(0,0,l),
(400,0,l),
(650,500,o),
(650,550,o),
(400,800,c)
);
}
);
width = 800;
}
);
note = uniE1B5;
unicode = 57781;
},
{
glyphname = uniE1B6;
layers = (
{
layerId = m01;
shapes = (
{
closed = 1;
nodes = (
(800,0,l),
(800,800,l),
(600,150,o),
(600,150,o),
(0,0,c)
);
}
);
width = 800;
}
);
note = uniE1B6;
unicode = 57782;
},
{
glyphname = uniE1B7;
layers = (
{
layerId = m01;
shapes = (
{
closed = 1;
nodes = (
(800,0,l),
(800,800,l),
(500,200,o),
(400,100,o),
(0,0,c)
);
}
);
width = 800;
}
);
note = uniE1B7;
unicode = 57783;
},
{
glyphname = uniE1B8;
layers = (
{
layerId = m01;
shapes = (
{
closed = 1;
nodes = (
(800,0,l),
(800,800,l),
(550,300,o),
(500,250,o),
(0,0,c)
);
}
);
width = 800;
}
);
note = uniE1B8;
unicode = 57784;
},
{
glyphname = uniE1B9;
layers = (
{
layerId = m01;
shapes = (
{
closed = 1;
nodes = (
(800,0,l),
(800,800,l),
(600,800,l),
(450,200,o),
(400,100,o),
(0,0,c)
);
}
);
width = 800;
}
);
note = uniE1B9;
unicode = 57785;
},
{
glyphname = uniE1BA;
layers = (
{
layerId = m01;
shapes = (
{
closed = 1;
nodes = (
(800,0,l),
(800,800,l),
(600,800,l),
(300,200,o),
(200,50,o),
(0,0,c)
);
}
);
width = 800;
}
);
note = uniE1BA;
unicode = 57786;
},
{
glyphname = uniE1BB;
layers = (
{
layerId = m01;
shapes = (
{
closed = 1;
nodes = (
(800,0,l),
(800,800,l),
(600,800,l),
(750,200,o),
(600,150,o),
(0,0,c)
);
}
);
width = 800;
}
);
note = uniE1BB;
unicode = 57787;
},
{
glyphname = uniE1BC;
layers = (
{
layerId = m01;
shapes = (
{
closed = 1;
nodes = (
(800,0,l),
(800,800,l),
(600,800,l),
(800,400,o),
(800,200,o),
(0,0,c)
);
}
);
width = 800;
}
);
note = uniE1BC;
unicode = 57788;
},
{
glyphname = uniE1BD;
layers = (
{
layerId = m01;
shapes = (
{
closed = 1;
nodes = (
(800,0,l),
(800,800,l),
(600,800,l),
(800,600,o),
(800,200,o),
(0,0,c)
);
}
);
width = 800;
}
);
note = uniE1BD;
unicode = 57789;
},
{
glyphname = uniE1BE;
layers = (
{
layerId = m01;
shapes = (
{
closed = 1;
nodes = (
(800,0,l),
(800,800,l),
(600,800,l),
(500,400,o),
(400,200,o),
(0,0,c)
);
}
);
width = 800;
}
);
note = uniE1BE;
unicode = 57790;
},
{
glyphname = uniE1BF;
layers = (
{
layerId = m01;
shapes = (
{
closed = 1;
nodes = (
(800,0,l),
(800,800,l),
(600,800,l),
(400,400,o),
(200,100,o),
(0,0,c)
);
}
);
width = 800;
}
);
note = uniE1BF;
unicode = 57791;
},
{
glyphname = uniE1C0;
layers = (
{
layerId = m01;
shapes = (
{
closed = 1;
nodes = (
(800,0,l),
(800,800,l),
(600,800,l),
(700,400,o),
(700,350,o),
(0,0,c)
);
}
);
width = 800;
}
);
note = uniE1C0;
unicode = 57792;
},
{
glyphname = uniE1C1;
layers = (
{
layerId = m01;
shapes = (
{
closed = 1;
nodes = (
(800,0,l),
(800,800,l),
(600,800,l),
(800,400,o),
(800,400,o),
(0,0,c)
);
}
);
width = 800;
}
);
note = uniE1C1;
unicode = 57793;
},
{
glyphname = uniE1C2;
layers = (
{
layerId = m01;
shapes = (
{
closed = 1;
nodes = (
(800,0,l),
(800,800,l),
(600,800,l),
(800,600,o),
(800,400,o),
(0,0,c)
);
}
);
width = 800;
}
);
note = uniE1C2;
unicode = 57794;
},
{
glyphname = uniE1C3;
layers = (
{
layerId = m01;
shapes = (
{
closed = 1;
nodes = (
(800,0,l),
(800,800,l),
(600,800,l),
(550,600,o),
(400,400,o),
(0,0,c)
);
}
);
width = 800;
}
);
note = uniE1C3;
unicode = 57795;
},
{
glyphname = uniE1C4;
layers = (
{
layerId = m01;
shapes = (
{
closed = 1;
nodes = (
(800,0,l),
(800,800,l),
(600,800,l),
(500,600,o),
(400,400,o),
(0,0,c)
);
}
);
width = 800;
}
);
note = uniE1C4;
unicode = 57796;
},
{
glyphname = uniE1C5;
layers = (
{
layerId = m01;
shapes = (
{
closed = 1;
nodes = (
(800,0,l),
(800,800,l),
(600,800,l),
(650,600,o),
(600,600,o),
(0,0,c)
);
}
);
width = 800;
}
);
note = uniE1C5;
unicode = 57797;
},
{
glyphname = uniE1C6;
layers = (
{
layerId = m01;
shapes = (
{
closed = 1;
nodes = (
(800,0,l),
(800,800,l),
(600,800,l),
(650,700,o),
(600,650,o),
(0,0,c)
);
}
);
width = 800;
}
);
note = uniE1C6;
unicode = 57798;
},
{
glyphname = uniE1C7;
layers = (
{
layerId = m01;
shapes = (
{
closed = 1;
nodes = (
(800,0,l),
(800,800,l),
(600,800,l),
(650,750,o),
(650,700,o),
(0,0,c)
);
}
);
width = 800;
}
);
note = uniE1C7;
unicode = 57799;
},
{
glyphname = uniE1C8;
layers = (
{
layerId = m01;
shapes = (
{
closed = 1;
nodes = (
(800,0,l),
(800,800,l),
(400,800,l),
(250,200,o),
(200,50,o),
(0,0,c)
);
}
);
width = 800;
}
);
note = uniE1C8;
unicode = 57800;
},
{
glyphname = uniE1C9;
layers = (
{
layerId = m01;
shapes = (
{
closed = 1;
nodes = (
(800,0,l),
(800,800,l),
(400,800,l),
(550,200,o),
(600,150,o),
(0,0,c)
);
}
);
width = 800;
}
);
note = uniE1C9;
unicode = 57801;
},
{
glyphname = uniE1CA;
layers = (
{
layerId = m01;
shapes = (
{
closed = 1;
nodes = (
(800,0,l),
(800,800,l),
(400,800,l),
(700,200,o),
(600,150,o),
(0,0,c)
);
}
);
width = 800;
}
);
note = uniE1CA;
unicode = 57802;
},
{
glyphname = uniE1CB;
layers = (
{
layerId = m01;
shapes = (
{
closed = 1;
nodes = (
(800,0,l),
(800,800,l),
(400,800,l),
(800,400,o),
(800,200,o),
(0,0,c)
);
}
);
width = 800;
}
);
note = uniE1CB;
unicode = 57803;
},
{
glyphname = uniE1CC;
layers = (
{
layerId = m01;
shapes = (
{
closed = 1;
nodes = (
(800,0,l),
(800,800,l),
(400,800,l),
(800,600,o),
(800,200,o),
(0,0,c)
);
}
);
width = 800;
}
);
note = uniE1CC;
unicode = 57804;
},
{
glyphname = uniE1CD;
layers = (
{
layerId = m01;
shapes = (
{
closed = 1;
nodes = (
(800,0,l),
(800,800,l),
(400,800,l),
(250,200,o),
(200,100,o),
(0,0,c)
);
}
);
width = 800;
}
);
note = uniE1CD;
unicode = 57805;
},
{
glyphname = uniE27C;
layers = (
{
layerId = m01;
shapes = (
{
closed = 1;
nodes = (
(800,0,l),
(800,800,l),
(400,800,l),
(500,400,o),
(500,250,o),
(0,0,c)
);
}
);
width = 800;
}
);
note = uniE27C;
unicode = 57980;
},
{
glyphname = uniE27D;
layers = (
{
layerId = m01;
shapes = (
{
closed = 1;
nodes = (
(800,0,l),
(800,800,l),
(400,800,l),
(600,400,o),
(600,300,o),
(0,0,c)
);
}
);
width = 800;
}
);
note = uniE27D;
unicode = 57981;
},
{
glyphname = uniE27E;
layers = (
{
layerId = m01;
shapes = (
{
closed = 1;
nodes = (
(800,0,l),
(800,800,l),
(400,800,l),
(800,400,o),
(800,400,o),
(0,0,c)
);
}
);
width = 800;
}
);
note = uniE27E;
unicode = 57982;
},
{
glyphname = uniE27F;
layers = (
{
layerId = m01;
shapes = (
{
closed = 1;
nodes = (
(800,0,l),
(800,800,l),
(400,800,l),
(800,600,o),
(800,400,o),
(0,0,c)
);
}
);
width = 800;
}
);
note = uniE27F;
unicode = 57983;
},
{
glyphname = uniE280;
layers = (
{
layerId = m01;
shapes = (
{
closed = 1;
nodes = (
(800,0,l),
(800,800,l),
(400,800,l),
(300,400,o),
(250,250,o),
(0,0,c)
);
}
);
width = 800;
}
);
note = uniE280;
unicode = 57984;
},
{
glyphname = uniE281;
layers = (
{
layerId = m01;
shapes = (
{
closed = 1;
nodes = (
(800,0,l),
(800,800,l),
(400,800,l),
(450,600,o),
(450,450,o),
(0,0,c)
);
}
);
width = 800;
}
);
note = uniE281;
unicode = 57985;
},
{
glyphname = uniE282;
layers = (
{
layerId = m01;
shapes = (
{
closed = 1;
nodes = (
(800,0,l),
(800,800,l),
(400,800,l),
(500,600,o),
(500,500,o),
(0,0,c)
);
}
);
width = 800;
}
);
note = uniE282;
unicode = 57986;
},
{
glyphname = uniE283;
layers = (
{
layerId = m01;
shapes = (
{
closed = 1;
nodes = (
(800,0,l),
(800,800,l),
(400,800,l),
(600,600,o),
(600,600,o),
(0,0,c)
);
}
);
width = 800;
}
);
note = uniE283;
unicode = 57987;
},
{
glyphname = uniE284;
layers = (
{
layerId = m01;
shapes = (
{
closed = 1;
nodes = (
(800,0,l),
(800,800,l),
(400,800,l),
(600,700,o),
(600,600,o),
(0,0,c)
);
}
);
width = 800;
}
);
note = uniE284;
unicode = 57988;
},
{
glyphname = uniE285;
layers = (
{
layerId = m01;
shapes = (
{
closed = 1;
nodes = (
(800,0,l),
(800,800,l),
(200,800,l),
(350,200,o),
(400,100,o),
(0,0,c)
);
}
);
width = 800;
}
);
note = uniE285;
unicode = 57989;
},
{
glyphname = uniE286;
layers = (
{
layerId = m01;
shapes = (
{
closed = 1;
nodes = (
(800,0,l),
(800,800,l),
(200,800,l),
(500,200,o),
(400,100,o),
(0,0,c)
);
}
);
width = 800;
}
);
note = uniE286;
unicode = 57990;
},
{
glyphname = uniE287;
layers = (
{
layerId = m01;
shapes = (
{
closed = 1;
nodes = (
(800,0,l),
(800,800,l),
(200,800,l),
(800,200,o),
(800,200,o),
(0,0,c)
);
}
);
width = 800;
}
);
note = uniE287;
unicode = 57991;
},
{
glyphname = uniE288;
layers = (
{
layerId = m01;
shapes = (
{
closed = 1;
nodes = (
(800,0,l),
(800,800,l),
(200,800,l),
(800,400,o),
(800,200,o),
(0,0,c)
);
}
);
width = 800;
}
);
note = uniE288;
unicode = 57992;
},
{
glyphname = uniE289;
layers = (
{
layerId = m01;
shapes = (
{
closed = 1;
nodes = (
(800,0,l),
(800,800,l),
(200,800,l),
(800,600,o),
(800,200,o),
(0,0,c)
);
}
);
width = 800;
}
);
note = uniE289;
unicode = 57993;
},
{
glyphname = uniE28A;
layers = (
{
layerId = m01;
shapes = (
{
closed = 1;
nodes = (
(800,0,l),
(800,800,l),
(200,800,l),
(350,200,o),
(300,150,o),
(0,0,c)
);
}
);
width = 800;
}
);
note = uniE28A;
unicode = 57994;
},
{
glyphname = uniE28B;
layers = (
{
layerId = m01;
shapes = (
{
closed = 1;
nodes = (
(800,0,l),
(800,800,l),
(200,800,l),
(450,300,o),
(400,200,o),
(0,0,c)
);
}
);
width = 800;
}
);
note = uniE28B;
unicode = 57995;
},
{
glyphname = uniE28C;
layers = (
{
layerId = m01;
shapes = (
{
closed = 1;
nodes = (
(800,0,l),
(800,800,l),
(200,800,l),
(600,400,o),
(600,300,o),
(0,0,c)
);
}
);
width = 800;
}
);
note = uniE28C;
unicode = 57996;
},
{
glyphname = uniE28D;
layers = (
{
layerId = m01;
shapes = (
{
closed = 1;
nodes = (
(800,0,l),
(800,800,l),
(200,800,l),
(300,400,o),
(300,300,o),
(0,0,c)
);
}
);
width = 800;
}
);
note = uniE28D;
unicode = 57997;
},
{
glyphname = uniE28E;
layers = (
{
layerId = m01;
shapes = (
{
closed = 1;
nodes = (
(800,0,l),
(800,800,l),
(200,800,l),
(400,400,o),
(400,400,o),
(0,0,c)
);
}
);
width = 800;
}
);
note = uniE28E;
unicode = 57998;
},
{
glyphname = uniE28F;
layers = (
{
layerId = m01;
shapes = (
{
closed = 1;
nodes = (
(800,0,l),
(800,800,l),
(200,800,l),
(500,500,o),
(500,500,o),
(0,0,c)
);
}
);
width = 800;
}
);
note = uniE28F;
unicode = 57999;
},
{
glyphname = uniE290;
layers = (
{
layerId = m01;
shapes = (
{
closed = 1;
nodes = (
(800,0,l),
(800,800,l),
(200,800,l),
(500,500,o),
(500,400,o),
(400,0,c)
);
}
);
width = 800;
}
);
note = uniE290;
unicode = 58000;
},
{
glyphname = uniE291;
layers = (
{
layerId = m01;
shapes = (
{
closed = 1;
nodes = (
(800,0,l),
(800,800,l),
(200,800,l),
(600,400,o),
(600,400,o),
(400,0,c)
);
}
);
width = 800;
}
);
note = uniE291;
unicode = 58001;
},
{
glyphname = uniE292;
layers = (
{
layerId = m01;
shapes = (
{
closed = 1;
nodes = (
(800,0,l),
(800,800,l),
(200,800,l),
(500,200,o),
(500,200,o),
(400,0,c)
);
}
);
width = 800;
}
);
note = uniE292;
unicode = 58002;
},
{
glyphname = uniE293;
layers = (
{
layerId = m01;
shapes = (
{
closed = 1;
nodes = (
(800,0,l),
(800,800,l),
(200,800,l),
(800,200,o),
(800,200,o),
(400,0,c)
);
}
);
width = 800;
}
);
note = uniE293;
unicode = 58003;
},
{
glyphname = uniE294;
layers = (
{
layerId = m01;
shapes = (
{
closed = 1;
nodes = (
(800,0,l),
(800,800,l),
(200,800,l),
(800,400,o),
(800,400,o),
(400,0,c)
);
}
);
width = 800;
}
);
note = uniE294;
unicode = 58004;
},
{
glyphname = uniE295;
layers = (
{
layerId = m01;
shapes = (
{
closed = 1;
nodes = (
(800,0,l),
(800,800,l),
(200,800,l),
(650,350,o),
(650,200,o),
(600,0,c)
);
}
);
width = 800;
}
);
note = uniE295;
unicode = 58005;
},
{
glyphname = uniE296;
layers = (
{
layerId = m01;
shapes = (
{
closed = 1;
nodes = (
(800,0,l),
(800,800,l),
(200,800,l),
(700,300,o),
(700,200,o),
(600,0,c)
);
}
);
width = 800;
}
);
note = uniE296;
unicode = 58006;
},
{
glyphname = uniE297;
layers = (
{
layerId = m01;
shapes = (
{
closed = 1;
nodes = (
(800,0,l),
(800,800,l),
(200,800,l),
(800,200,o),
(800,200,o),
(600,0,c)
);
}
);
width = 800;
}
);
note = uniE297;
unicode = 58007;
},
{
glyphname = uniE2D0;
layers = (
{
layerId = m01;
shapes = (
{
closed = 1;
nodes = (
(800,0,l),
(800,800,l),
(600,800,l),
(600,400,o),
(600,400,o),
(200,0,c)
);
}
);
width = 800;
}
);
note = uniE2D0;
unicode = 58064;
},
{
glyphname = uniE2D1;
layers = (
{
layerId = m01;
shapes = (
{
closed = 1;
nodes = (
(800,0,l),
(800,800,l),
(600,800,l),
(600,100,o),
(600,100,o),
(400,0,c)
);
}
);
width = 800;
}
);
note = uniE2D1;
unicode = 58065;
},
{
glyphname = uniE2D2;
layers = (
{
layerId = m01;
shapes = (
{
closed = 1;
nodes = (
(800,0,l),
(800,800,l),
(600,800,l),
(600,200,o),
(600,200,o),
(400,0,c)
);
}
);
width = 800;
}
);
note = uniE2D2;
unicode = 58066;
},
{
glyphname = uniE2D3;
layers = (
{
layerId = m01;
shapes = (
{
closed = 1;
nodes = (
(800,0,l),
(800,800,l),
(600,800,l),
(600,400,o),
(600,400,o),
(400,0,c)
);
}
);
width = 800;
}
);
note = uniE2D3;
unicode = 58067;
},
{
glyphname = uniE2D4;
layers = (
{
layerId = m01;
shapes = (
{
closed = 1;
nodes = (
(800,0,l),
(800,800,l),
(400,800,l),
(400,100,o),
(400,100,o),
(200,0,c)
);
}
);
width = 800;
}
);
note = uniE2D4;
unicode = 58068;
},
{
glyphname = uniE2D5;
layers = (
{
layerId = m01;
shapes = (
{
closed = 1;
nodes = (
(800,0,l),
(800,800,l),
(400,800,l),
(400,200,o),
(400,200,o),
(200,0,c)
);
}
);
width = 800;
}
);
note = uniE2D5;
unicode = 58069;
},
{
glyphname = uniE2D6;
layers = (
{
layerId = m01;
shapes = (
{
closed = 1;
nodes = (
(800,0,l),
(800,800,l),
(400,800,l),
(400,400,o),
(400,400,o),
(200,0,c)
);
}
);
width = 800;
}
);
note = uniE2D6;
unicode = 58070;
},
{
glyphname = uniE2DE;
layers = (
{
layerId = m01;
shapes = (
{
closed = 1;
nodes = (
(800,0,l),
(800,200,l),
(200,50,o),
(200,50,o),
(200,0,c)
);
}
);
width = 800;
}
);
note = uniE2DE;
unicode = 58078;
},
{
glyphname = uniE2DF;
layers = (
{
layerId = m01;
shapes = (
{
closed = 1;
nodes = (
(800,0,l),
(800,200,l),
(400,100,o),
(400,100,o),
(400,0,c)
);
}
);
width = 800;
}
);
note = uniE2DF;
unicode = 58079;
},
{
glyphname = uniE2E0;
layers = (
{
layerId = m01;
shapes = (
{
closed = 1;
nodes = (
(800,0,l),
(800,400,l),
(200,250,o),
(200,250,o),
(200,0,c)
);
}
);
width = 800;
}
);
note = uniE2E0;
unicode = 58080;
},
{
glyphname = uniE299;
layers = (
{
layerId = m01;
shapes = (
{
closed = 1;
nodes = (
(800,0,l),
(800,400,l),
(0,200,o),
(0,200,o),
(0,0,c)
);
}
);
width = 800;
}
);
note = uniE299;
unicode = 58009;
},
{
glyphname = uniE29A;
layers = (
{
layerId = m01;
shapes = (
{
closed = 1;
nodes = (
(800,0,l),
(800,600,l),
(0,400,o),
(0,400,o),
(0,0,c)
);
}
);
width = 800;
}
);
note = uniE29A;
unicode = 58010;
},
{
glyphname = uniE29B;
layers = (
{
layerId = m01;
shapes = (
{
closed = 1;
nodes = (
(800,0,l),
(800,800,l),
(0,600,o),
(0,600,o),
(0,0,c)
);
}
);
width = 800;
}
);
note = uniE29B;
unicode = 58011;
},
{
glyphname = uniE29C;
layers = (
{
layerId = m01;
shapes = (
{
closed = 1;
nodes = (
(800,0,l),
(800,800,l),
(200,650,o),
(200,650,o),
(200,0,c)
);
}
);
width = 800;
}
);
note = uniE29C;
unicode = 58012;
},
{
glyphname = uniE29D;
layers = (
{
layerId = m01;
shapes = (
{
closed = 1;
nodes = (
(800,0,l),
(800,800,l),
(400,700,o),
(400,700,o),
(400,0,c)
);
}
);
width = 800;
}
);
note = uniE29D;
unicode = 58013;
},
{
glyphname = uniE29E;
layers = (
{
layerId = m01;
shapes = (
{
closed = 1;
nodes = (
(800,0,l),
(800,800,l),
(600,750,o),
(600,750,o),
(600,0,c)
);
}
);
width = 800;
}
);
note = uniE29E;
unicode = 58014;
},
{
glyphname = uniE29F;
layers = (
{
layerId = m01;
shapes = (
{
closed = 1;
nodes = (
(800,0,l),
(800,600,l),
(600,550,o),
(600,550,o),
(600,0,c)
);
}
);
width = 800;
}
);
note = uniE29F;
unicode = 58015;
},
{
glyphname = uniE2A0;
layers = (
{
layerId = m01;
shapes = (
{
closed = 1;
nodes = (
(800,0,l),
(800,600,l),
(400,500,o),
(400,500,o),
(400,0,c)
);
}
);
width = 800;
}
);
note = uniE2A0;
unicode = 58016;
},
{
glyphname = uniE2A1;
layers = (
{
layerId = m01;
shapes = (
{
closed = 1;
nodes = (
(800,0,l),
(800,600,l),
(200,450,o),
(200,450,o),
(200,0,c)
);
}
);
width = 800;
}
);
note = uniE2A1;
unicode = 58017;
},
{
glyphname = uniE2A2;
layers = (
{
layerId = m01;
shapes = (
{
closed = 1;
nodes = (
(800,0,l),
(800,400,l),
(200,250,o),
(200,250,o),
(200,0,c)
);
}
);
width = 800;
}
);
note = uniE2A2;
unicode = 58018;
},
{
glyphname = uniE2A3;
layers = (
{
layerId = m01;
shapes = (
{
closed = 1;
nodes = (
(800,0,l),
(800,400,l),
(400,300,o),
(400,300,o),
(400,0,c)
);
}
);
width = 800;
}
);
note = uniE2A3;
unicode = 58019;
},
{
glyphname = uniE2A4;
layers = (
{
layerId = m01;
shapes = (
{
closed = 1;
nodes = (
(800,0,l),
(800,400,l),
(600,350,o),
(600,350,o),
(600,0,c)
);
}
);
width = 800;
}
);
note = uniE2A4;
unicode = 58020;
},
{
glyphname = uniE2A5;
layers = (
{
layerId = m01;
shapes = (
{
closed = 1;
nodes = (
(800,0,l),
(800,200,l),
(600,150,o),
(600,150,o),
(600,0,c)
);
}
);
width = 800;
}
);
note = uniE2A5;
unicode = 58021;
},
{
glyphname = uniE2A6;
layers = (
{
layerId = m01;
shapes = (
{
closed = 1;
nodes = (
(800,0,l),
(800,600,l),
(0,200,o),
(0,200,o),
(0,0,c)
);
}
);
width = 800;
}
);
note = uniE2A6;
unicode = 58022;
},
{
glyphname = uniE2A7;
layers = (
{
layerId = m01;
shapes = (
{
closed = 1;
nodes = (
(800,0,l),
(800,800,l),
(0,400,o),
(0,400,o),
(0,0,c)
);
}
);
width = 800;
}
);
note = uniE2A7;
unicode = 58023;
},
{
glyphname = uniE2A8;
layers = (
{
layerId = m01;
shapes = (
{
closed = 1;
nodes = (
(800,0,l),
(800,800,l),
(200,500,o),
(200,500,o),
(200,0,c)
);
}
);
width = 800;
}
);
note = uniE2A8;
unicode = 58024;
},
{
glyphname = uniE2A9;
layers = (
{
layerId = m01;
shapes = (
{
closed = 1;
nodes = (
(800,0,l),
(800,800,l),
(400,600,o),
(400,600,o),
(400,0,c)
);
}
);
width = 800;
}
);
note = uniE2A9;
unicode = 58025;
},
{
glyphname = uniE2AA;
layers = (
{
layerId = m01;
shapes = (
{
closed = 1;
nodes = (
(800,0,l),
(800,800,l),
(600,700,o),
(600,700,o),
(600,0,c)
);
}
);
width = 800;
}
);
note = uniE2AA;
unicode = 58026;
},
{
glyphname = uniE2AB;
layers = (
{
layerId = m01;
shapes = (
{
closed = 1;
nodes = (
(800,0,l),
(800,600,l),
(600,500,o),
(600,500,o),
(600,0,c)
);
}
);
width = 800;
}
);
note = uniE2AB;
unicode = 58027;
},
{
glyphname = uniE2AC;
layers = (
{
layerId = m01;
shapes = (
{
closed = 1;
nodes = (
(800,0,l),
(800,600,l),
(400,400,o),
(400,400,o),
(400,0,c)
);
}
);
width = 800;
}
);
note = uniE2AC;
unicode = 58028;
},
{
glyphname = uniE2AD;
layers = (
{
layerId = m01;
shapes = (
{
closed = 1;
nodes = (
(800,0,l),
(800,600,l),
(200,300,o),
(200,300,o),
(200,0,c)
);
}
);
width = 800;
}
);
note = uniE2AD;
unicode = 58029;
},
{
glyphname = uniE2AE;
layers = (
{
layerId = m01;
shapes = (
{
closed = 1;
nodes = (
(800,0,l),
(800,400,l),
(200,100,o),
(200,100,o),
(200,0,c)
);
}
);
width = 800;
}
);
note = uniE2AE;
unicode = 58030;
},
{
glyphname = uniE2AF;
layers = (
{
layerId = m01;
shapes = (
{
closed = 1;
nodes = (
(800,0,l),
(800,400,l),
(400,200,o),
(400,200,o),
(400,0,c)
);
}
);
width = 800;
}
);
note = uniE2AF;
unicode = 58031;
},
{
glyphname = uniE2B0;
layers = (
{
layerId = m01;
shapes = (
{
closed = 1;
nodes = (
(800,0,l),
(800,400,l),
(600,300,o),
(600,300,o),
(600,0,c)
);
}
);
width = 800;
}
);
note = uniE2B0;
unicode = 58032;
},
{
glyphname = uniE2D7;
layers = (
{
layerId = m01;
shapes = (
{
closed = 1;
nodes = (
(800,0,l),
(800,800,l),
(200,200,o),
(200,200,o),
(200,0,c)
);
}
);
width = 800;
}
);
note = uniE2D7;
unicode = 58071;
},
{
glyphname = uniE2D8;
layers = (
{
layerId = m01;
shapes = (
{
closed = 1;
nodes = (
(800,0,l),
(800,800,l),
(400,400,o),
(400,400,o),
(400,0,c)
);
}
);
width = 800;
}
);
note = uniE2D8;
unicode = 58072;
},
{
glyphname = uniE2D9;
layers = (
{
layerId = m01;
shapes = (
{
closed = 1;
nodes = (
(800,0,l),
(800,800,l),
(600,600,o),
(600,600,o),
(600,0,c)
);
}
);
width = 800;
}
);
note = uniE2D9;
unicode = 58073;
},
{
glyphname = uniE2DA;
layers = (
{
layerId = m01;
shapes = (
{
closed = 1;
nodes = (
(800,0,l),
(800,600,l),
(600,400,o),
(600,400,o),
(600,0,c)
);
}
);
width = 800;
}
);
note = uniE2DA;
unicode = 58074;
},
{
glyphname = uniE2DB;
layers = (
{
layerId = m01;
shapes = (
{
closed = 1;
nodes = (
(800,0,l),
(800,600,l),
(400,200,o),
(400,200,o),
(400,0,c)
);
}
);
width = 800;
}
);
note = uniE2DB;
unicode = 58075;
},
{
glyphname = uniE2DC;
layers = (
{
layerId = m01;
shapes = (
{
closed = 1;
nodes = (
(800,0,l),
(800,400,l),
(600,200,o),
(600,200,o),
(600,0,c)
);
}
);
width = 800;
}
);
note = uniE2DC;
unicode = 58076;
},
{
glyphname = uniE2DD;
layers = (
{
layerId = m01;
shapes = (
{
closed = 1;
nodes = (
(800,0,l),
(800,800,l),
(600,400,o),
(600,400,o),
(600,0,c)
);
}
